<mxfile host="65bd71144e">
    <diagram id="HYtU536qAc5R7OUmZnjH" name="Page-1">
        <mxGraphModel dx="734" dy="440" grid="1" gridSize="10" guides="1" tooltips="1" connect="1" arrows="1" fold="1" page="1" pageScale="1" pageWidth="850" pageHeight="1100" math="0" shadow="0">
            <root>
                <mxCell id="0"/>
                <mxCell id="29" value="game setup" parent="0" visible="0"/>
                <mxCell id="30" value="location 1" style="shape=cylinder3;whiteSpace=wrap;html=1;boundedLbl=1;backgroundOutline=1;size=15;" parent="29" vertex="1">
                    <mxGeometry x="460" y="280" width="60" height="80" as="geometry"/>
                </mxCell>
                <mxCell id="48" value="" style="shape=image;verticalLabelPosition=bottom;labelBackgroundColor=#ffffff;verticalAlign=top;aspect=fixed;imageAspect=0;image=data:image/png,iVBORw0KGgoAAAANSUhEUgAAAuAAAACGCAYAAACc7D9nAAAAAXNSR0IArs4c6QAAAARnQU1BAACxjwv8YQUAAAAJcEhZcwAADsMAAA7DAcdvqGQAAEjMSURBVHhe7Z0FeFTXFoVXEtwdXmlxp7gWd5fiUlyKlxaKtoUK0qLF3SlQtEChOBR3aykSpLg7QUP6zjq5EyZhJplJJpMbsn+++12ZMHJ1nX3W2dvjPwUEQRAEQRAEQXALnsZcEARBEARBEAQ3IAJcEARBEARBENyICHBBEARBEARBcCMiwAVBEARBEATBjYgAFwRBEARBEAQ3IgJcEARBEARBENyICHBBEARBEARBcCMiwAVBEARBEATBjYgAFwRBEARBEAQ3IgJcEARBEARBENyICHBBEARBEARBcCMiwAVBEARBEATBjYgAFwRBEARBEAQ3IgJcEARBEARBENyICHBBEARBEARBcCMe/ymM5UDUqVUbjx49MtYEM5E6dWpcvXrVWBPMwPvvv48rV64Ya4JZyJIlC86cOWOsCWYgdqxYePb8ubEmmIXs2bPj5MmTxppgFhIlSoQHDx4Ya4KZ+HnsGOTKndtYcx67ArxAnrwiwE1KhowZcP7ceWNNMAOZMmfCWe+zxppgFvLnz4/Dhw8ba4IZiBMnDp4+fWqsCWahcOHC2L9/v7EmmIVkyZLhzp07xppgJhb8ugiF1HUTWsSCIgiCIAiCIAhuxG4EvEHdegFRiq6fdUPy5Mn1shBx/HX8OJYuWQoPtZw+Q3q0bN3a/wUhQpkxfTouX7wEXkiNmjRGjhw5/F8QIoybN25g4oSJ8FAXS7x48fBl797GK0JEsnrVKhw8cFAvlytfHqXLlNbLQsTh5+eH7wZ+q64VD1AO9O3fD7FjxzZeFSKKvXv34o81a/Vyrty5UL9BA70sRCzjxozBnTt39fL3gwehQIECejk0OGRB+WPjBmTKlEkvCxEHH149un+ul4sULYr5CxfoZSFiaVS/AQ4fOqSXx02cgCpVq+plIeI4+c9J1KpeXS8nTZYMew9I17oZ+KpfPyxe9Kte7v7FFzq4I0Qsvr6+yJ45i7EGHDhyWPuOhYhl9sxZGPzDD3q5eo0a+HncWL0sRCwVypbDxX//1ctiQREEQRAEQRCESIQIcEEQBEEQBEFwIyLABUEQBEEQBMGNiAAXBEEQBEEQBDciAlwQBEEQBEEQ3IhkQYlESBYUcxIVs6AwRenpU6eQ88MPESNGDGOreYjoLCh3bt/GlStXcfXKFdy9exdPnz3FU5+neKb2G5efPX0Gn6c+ev7y5Ut4enrAyysaokXz0nMvL8691LqxzO2enEdDdDXFjBkTcePFRdy48dSk5lyOY8y5zu1qmUVvuO7paY5Yi2RBMR+SBcWcSBYUc+LKLCgiwCMRIsDNybsiwB+r651ikVXXLNNdNZ07dw67d+7Cw4cPjb98w5Tp03Q+Z7PhjAAvXqQobt26ZawJS5YvR958eY011yIC3HyIADcnIsDNiaQhFFwKC/yMHzsO/Xr3QctmzfFxzVr4pHETdGjfPuBEEyIPLKxx//59XDh/XjcMNm/ahGVLl2L61GkY8dMw9O/bD507dESTho1QtWIlFC1UWD+A86tGd8Vy5fX2bp274LsBA/V5wWIQtsQ32bt7j7EUeRHxHZjr164ZS4IgCEJ4IRHwSIQrI+Ds9qYYmzVzprEleLbu2I6nPj4Yrv7Ptq1b9TbvC+f1PKoTmgi4t7c3vlJCmPYC2gP8LQeeatkLr1+/xrNnz/Cc0/PneKamF2p68uSJPm5moljx4pgzf56xZh6ciYBnTp/BWBLIhMmTUKlyZWPNtUgE3HxIBNycSATcnEgEXHAaRrX+WLsWPw0dimKFiyBn1mwOi29StmQpVK9SNUB8E7OJwcjEzh07cOTwYRw8cAD79+3Dnt271bad2P7nn9i1c6cW9P/88w/Onz+vj929e/dMsb9z58mDDh07Yva8uTj691+mFN/OkiNnTmMp8kEveNNPPsEnzZujecsWaNGqJVq1bo3WbdqgTbt2envdevVQtVo1lC5TBoWLFNa+/cxZsiBDhgxIkzYtUqdOjVSpUiF58uRIkiQJsmbNary7IAiCEF5IBDwSEdoI+PKly9CnVy9jzXV8PWAAWrZuZaxFXUITAR85fAQmT5xorJkHRuIzZMyIHDlyIHuO7GriPAcSJ05s/EXkIKyDMAd89TUWLgj++mJUqpAStMnU+ydMmBDxEyTQ8wRqHj9+fHh4eBh/KViQCLj5kAi4OZEIuDmRCLjgFDVr18L7779vrLmGj+vWQdXq1Yw1ISTY+0BRR389LQ9mEd8FChZEsxYtMPjHoVixaiWOnfgba9evw4jRo9C2fXttMYls4tsVvP/BB8aSfdb8/ju+/WYAunbqjOZNP8HHNWrqniIGL7JmzIT8ufPo9drVa+jX+Xf9+/TFj0OGYOL48Zg/bx5WrVyJP7dt070hHOzK7CnMMCO9S4IgCO82EgGPRITFA06h8Mv8+caa82TJmhV9+/dHyVIljS1v4KA/Wig2bdyEgd99a2yNOjgSAY9onzF95rQWFChUSInuAsiVOzfSpEnjsigtRePlS5fUdBmXLl/SAzfPnj2LQ0ePREgKvLBGwHk8eVxjx46tU/89efzYeMW9WFIRRo8RQ6cf9F+OrubR9bplmdtjWC0zqvngwQM8evhQD6B9HAHfv8eXPdGpSxdjzR+JgJsPiYCbE4mAmxNJQxhFCa0AP3HiBJo1bqIH8TkDH6DVlIhJmy6dseUNHBy4c/sOJbo36gwbFugNLl6ihLEWdjgYccXy5eqEv4h+X/U3tjoGBzPSU82MHi9evMCRv44jXrx4xquuwx0CvF79+uCl+q+68Dndu3vXeMU2FI558uZFwUIFkb9AQeTLny/Mv53H/JwS1d5nvHHhwnl/sX3pop7To26LxcuXIV++fMaaffjb+P783q7A1XnA2cC4cf0Gbty4HjC/eeOmmt/Qv50pHCl0ec+U6LU/8eLHx5Hjx4w1f0SAmw8R4OZEBLg5EQEeRQmtAL9y5Qq8PD2ROEkSxIoVC5cvX8ba39dgxLBhxl+8gQPS2n3aXg/aYiTNGqa227J5MzZt2KgHEVIwBYX/56T3GWPNefiec2bNxsjhw7Uos8aRrCtsZOz4czumT5uG48cCP/w5WO27Qf43NFcSWgGeMmVK/O9//8P/3nvPf1LL/164oHsqylesgG7du+PihX91GkHaFOylAiQcQEc7if9UQPu2gx4/R2FjhXYI7zNntNj2VsfzrJrzvLFzu7ALxwhwrAAFKhsOVy5fwXVDxN68eUMJ5X9w4fwF469dl1nH1QLcGbj/eO/UkWcrYc5otP/2R3a2R0ykOrywtd9FgJsPEeDmRAS4OREBHkVxRRpCHx8fdVEPwpJf/R+CFhi17tCpIz4qVszY4g/F+8YNG5To3oCDBw5qu0lw5C9QAIuWLHbY2kDBzcYABXdI+ZhXr12DbNmzG2tvYJYQitSNqmGwe9cuY6ttwiN1YmgGYdrj5s2bmDFtOs6cPq2zo7x69cp4JTC0deTLnx/lK1TQU4aMzkfYGallrnCmRHwjtr1x6eLFEI+zMyRJmjTEiL2Ff86cRvTo0Y210BORAtwReM6e9T4L77Peen5W7Xf2LljuuWaCNhgek2hq0rYXNef1zYYGr1/ObT1GOnbujJ69vjTW/BEBbj5EgJsTEeDmRAR4FCWsApye3E/btNWRTAu0JXw9cIC2OFhg+jsKbgrvUydPGVuDhxHcEaNG6TRnwcHI3yElVmld+XXhImOrY0ycMhkVK1XSyyyDvn7demxW78PvGxJMszZlxnSd3cPVhFWAU2Rv3bJFNYoWa8uMPfHLsuIlSpbUgrtMubI6ZZwj8P2YztD7tBLZ3obQVoKbEWnadMzEb7+vRk4XpAU0gwDnrfXq1ataXFtE9lkluM+dPee0HcwCr1f+nqSqUcPsK5ySJkuqt+llYzvXmYnFbIgANx8iwM2JCHBzIgI8ihIWAU5rQ9NGjXH79m1jC5A3b1506toFz58918KAIoG2DYoGR0mRIgU++/xz1G/YQEfKgnLx4kUcPXIEx44exb69+3Rk11GYuYU2jOo1a+h8x/xuG5ToXrduXcAFEBKDhw5B7Tp19P8PL0IrwGnzYE/EiuUr7EaIaVNhqffyFSug6EcfOfQ7eN0yqwanw4cO6/3Gng8zU6t2bbRp11bnqHYFESHA6QU/dPCgMR3SjUSOYXAWnvfM050pcyZ1382s00KmSJFc/w5nz2NGp3nN37l9B3fvqukO53dxh/M7d7WtjBFtCvv4CeL7z5VwT5w4CbJmy6p7nNjwcxUiwM2HCHBzIgLcnIgAj6KEVoAz4t20YSM9YMxV8CHdoVMn7fGlr5wwun306DEttim6Kfz4gHcUiouevXtprzaXeWpS2K7/Yx3Wr1+Ha1cdK5HNFInNW7TQRWPcgTMCnEKY6esY7eY+skX6DOn1DZeR7g9z5TK22ob7iD0bWnArsW1JZ2d2OLC3gmpU1KhZM8TfGBrcIcBp32FvzqEDSnAfOhjIyx4StBB9kCZNgMjmPHNmf7EdmoGo7EVhI/uM0cvB+ZkzZ3RmmrDYiWg1SZc+HXLkyIlyFcrrHqiwDJQVAW4+RICbExHg5kQEeBQlNAL82tWrOvLtTFQ7OJiOsEHDhjq3OAU9xfaxI/6CmzYHZ+FgT/pELZlWaImg95mie8P69YEi9sFBPzTFXI1aNbW/9rMuXXFJiY/wynxijSMC/IjaP4sXLsLaNWt0Ro3gYE9CylQcoPke3nvvPSRLnhwxYsTQE33bp06exIm//9ZRzIgia7ZsOrp66+bNEH8P4XfnjapM2bJqKqNEXXrjlfDB1QKcAvfE3ydw6OABHd2mPcsReCzTpk2rBLa/yNZzHdXOEOpeGV4THLxK69Up9TtPnz6txTeFVHjD71y8ZAnVeKqoe2ZoeXEGEeDmQwS4OREBbk5EgEdRnBXgHNDHyDeFaFiIGzcuChYqpMR3Fh1xPaoE999//WUzC4oj1KlXV5fH5m9ghI2ikoMnKbo5mNLRqDn93DVq1VI3p+rwUSKwX+/eqkEQOPNJg0aNMOTHocZa+OCIAGd2C/YIHDl8RDdWOAWX1cRMMDNOYXWT8fD01N7l27du6d9ruT/Yg7770kpslylTFsVKFA/RykBBz+g9xeXunbt0w+y91KmNV53DlQKcaTx79eipffMhwdzqBQoVRIECBZE3X16kz5BBNz5CA/cHB8SeOnVK7xM9nTylbSTOwM/nQFhrj3iSpEn0dcdc4WdOnVbve9L4a8fhtctGb/cvPreZqtQWIsDNhwhwcyIC3JyIAI+iOCvAWVXvphJLr16+wqtXL7UPlIP8tm7d6tRDnHaTsKZH4+DMuvXra3FKQU/xzu9C0b1lyxaHC51kzJgR1RnprlkDfurU/XHwEGxTvyc4wiPziTWh9YDTwsDGDG0jjGJeu3YNN65fN16NGEqXKYOcH+ZEtmzZAwYRHti/HwcPHAjxHKDQy5M3D0qVLq0j3bYy1lhgI4uNEPagnFYCcO/evW+dA0wZSTtSaHB1BJw2jvXr1mH61LfTW1pgA4O2IfYOsIw/xXeihAl1PmyKVWv4frwG6BFnj82li5dw8eK/es7c6sx7zwa0M9AKxgg701kmSpwYiRMnUkIqMby8PHXUXE+3/Oe0poSmAV2iVEnkzp1b27vyqIm9M84gAtx8iAA3JyLAzYkI8CiKswKcETQOCGM0cefOnfjnxAktqlwFvaAUGXxfW1CQNG32iZqa4YMPPtDRU4plim7mtXZ0gBoHpfEGROHt6emhb0xLlywxXrUPfbaTp01F2XLljC3hQ2gFuAWmX+R+2aWOEYsbhRRZtobHIHGSxA774y1w8CxtOxTbjHDTf8zG2v69+7QFiL8npEwdFNx58+VT52IRfT5y2ZatgrYiepKPqAe7/+DQIwE3sOCgkJ8xe5ax5hzh6QHfv28/Bn7zjc5q4gg8DxMkSABPLy+8MNL2udIuQpsLBXfMmDH0wEq+f1hJqBoOFPO5cuVCbtWoouCmlSasiAA3HyLAzYkIcHMiAjyK4ogAp/BgkZzdu3biwP4DLnkYW+A5wOqKFFocLLZ3z27MnT3nLSsFPdfNW7ZE67ZttAhn4Z5VK1fq7+VolUAKxKrVq6FS5Srq/7zQafr4WY7w0/Dh2uYSNOoYXoRGgJ8/dx4bNqzX6R6D2maCwnSDzM9O722xYsW10NqhhPqO7duxZ/duh7zgtEbQRlSoSGF9w6AVgUL4oBKmzO/OSHRI5wojrBTthYtQcBfRosyW4KatwSK0OWfE2BGfeFA4PmDshPHGmnOEpwC3wPEVq9Q1uXL5Cj0QNrJB4f6+ahhnUI1oetL95xl1o9pZb7ejiAA3HyLAzYkIcHMiAjyKYkuAU9Du3bMHmzdu0lYOV1kYKPootv0Fd17d7Rw/QQItrmbNmIG5c+a+ZRlglK9l69Zo1aa1FidLFi/Gb0qcOBrRpU+1YqWKWihSsNGiwt/lCH3790OzFi1sCsLwxhEBzsuMQtuSXz24AauWAYssjkTRzWuPVhXujx1qciTvOdPY0bfN9ylYuJCuhHrw4EFtJWHDjAM5Q8qOweg6q2pScHOi4LZVJIfWFEbN9+7eg7179zicOz4oFPjsLeHgPn5uaCt5EmcFOPcFU0Hevn1HW7cCLBu3b+n5vbv3dI/AUx8fncmGYw64HJYMI2anU5cuWpSXLF3KZYJcBLj5EAFuTkSAmxMR4FEUawHOSBVtA/SlhhVGrOlbpR2B0W2KbkZMraHomDJpMubOnv1WTunEiRPraPfHdepof/n8ufMcGrBGmA2jbNmySJIsqS7Jvf3P7Tp/siO07/Ap2rZrpwWWNddVI2TY0B/x++rVmDx1qs6hHZ7YE+AUZ2wcWQaXBufppWBmdhCKbjZA2JDgRf7zqNHanhKcHYSRTObP5v+j6OYgwIeqoXRAiW2myOPcEcsHvcr5jQh34aJFtP3AlgimdYhRc/aA7N2zVw/IDY0Q5fem0Kbg5sTIq6twRoBnTu+6z31XYa5/iuWw9iqJADcfIsDNiQhwcyICPArCrvyv+vV3WNjagxUrOUAse3Y15cihJ/qz7T1YeXosX7YMI4cN15FAayhs2rVvrwfecXDals2bjVeChyKfJesZTb18+ZJTvucSJUuoh/ZnSrgVNLb4w0Gl06dN098jKO4ehJkuXTr8tmIFVq9cZbe8Pvc37RyVKldChUqVAvlrGVGeMG6cttzYK0XPyCQ90pzyKxHLlJB7du3SxY7o+w96rGxBmw/FeiEl3AsWKqwaYVm1XzkotKYwAk/BvWf3Hm0psfe9QoIDevmdy1Uojw8/zKUtMA0aNXK5XUgEuOsZNeZn1KxVy1gLHSLAzYcIcHMiAtyciACPgjgrEhi5ZN5hi8i2CG4OrnIUCrlB3/+gI5zWULi179BBD/778osextbgYXYN5rb28vTSad3+On7c4QGhbCA0a9FcZ1GxfjAw6kpf+efdPgs2Q8eps9462hoUnt+0zYQVawH+Xur37A6IpLWEXm6KbmbLCBq5Z5R7hWrsTBg/4a0sNeylYCVMi+iOETOGHrTJ9I17du12qMgSC/xQaBdUjRfaUoL2cljgA5nHh9F7Cm7+trCMJUijGhfly5fXgz15zA8fPoRFCxYarwLzFvyif5srcVSAszcnr2oICCHD82Xdpo02bUiOIgLcfIgANyciwM2JCPAoSL/efexm/mBeXxbIyZIlS4DgzpgpoxZ8oYFp0X4a+qOu2GgNRWCTT5oqcfOPEr47ja32YZSTvl6/137aBuFM6kM2ICoqoco0dEHFGS0mtMLYinYHpVv3z3Q5e+sIK207XTt11sthiY7Tp85iQd9/+52uAmoLWklogalSpSpKlSmtUzAGxdvbG7/Mnaej5kHtPbTo9OnbVwtmndFGCe7dSnCHlIGDDQ4KXovYZo+BPR8vGzI8phTbFN30iQf9Hs7AKDqtJfx8/n5G4w/s248rV64YfxEY/saNWxzrPXEURwU4xceihQuxfdufuHDhgi5o4wp47SVLnkyXdGdD1ZJ/O2nSZHquc3EnM3JyJ0kSIGpp72FvF1M/MtuKI4NjwxuesxRkCdXUp19fFCte3HjFeUSAmw8R4OZEBLg5EQEeBWHU+OMaNY01fw/48JEj9NxVlR758J86eTKmTZka6oc+B4dSfDCaS6sCU9A5A1MONmraBPXr138rxzAzf4wdPRpHlSgJjiZNm6Lb592RPMj/v3rlKsqULGms+cNiLx07+4txR2EVyl/m/4I1q1fbzO5Bsc/9wJL4latUsXl8mIN56+YtmD9vnh7AGBT6sVlgKGXKVDrKTyEW3L6k4OYgyWLFi+kbAu0twRW+oZWJgptZVPj5jlqA7MFjTlsRH9wU3ew1caYkvqttQs5YUHgL5HiBUcNH2G0kENq30qvGQsJECZE4UWItrJMkSarnHAeRWAnpJMacDU9HYM8NG1Y8BmykhHRuuwI2kFL9L5W+1lKrKUWKlPq4JWLe8IT+c4rtxGriPCwR76CIADcfIsDNiQhwcyICPIribB5wZ2CawOE//uSQlcEWjHbeu3cvVFlYKAjKli+no90lS5UKFK3m6cko87ffDAg23R6jiCN/Hq0HMQb1E7NhUVvdwC6ctx3ddET8UTCzR2CBEt72CrEwbzIHotb6uLYuhhKUixcvajFN4c1Ic3CNHFqFQqqUyWuSFSYZkeT5EFxDjANA+dn02+9Rn+1sNUVbMEtK8hQpEFcJfa9o0fTgWWe84anUPhoxaqT+7q7GUQHOBtRnXbrqvPTWUIAwh33FSpXwYS7XWVRYgGjp4iX4ddGigJu4q2FjjOcfxXXq1Kn13CK2OacVLCwZZsKCCHDzIQLcnIgANyciwKMo4SHAKSZ/+O57XZUwNDDy6Whu76CwVHmDRo3QsHEjvWwNHwq/r1qNPr16BZtho0WrlujcpctbfmpCMfhljx5Y+/saY0tgmEWld9++xpptWK1y4S8LsGzpUrtRYmYNqd+gAXLlya3XmbKOAvfu3Tu6siF7L2jxCKmSZEikTJkSHxUvhuLFS2jhTS++PZgukt5t+sMpvF2dp5rRdTZ0QmNVYXSeWXOY5zu8cESA3717F+3btNV+d2t4LnKgLyPB0byiwdPLU4vaoBPFO48pJ6bktCw/fmS1rKarV67o4+EqGJGmwGaZfmthnfp9JbbVtpTq+/P7mRER4OZDBLg5EQFuTkSAR1FcKcAZiWPEm7m6XQkf/Oy2Zk5lW1C0McrNaHeZcmXfEgqMCi9fugwDvv7a2GKbfl9/hcZNmti0WdCqMX7sWDWNM7YEhoM6eU7byxnOB9KmjRt1tJsWjYiC+4q2DuZGL122bLDXIO0eFNyHD6pJzYPLM04YAeW+C6v1xFHodWZxpPoNGuqiL+FNSAL88uXLaN2iZbhFocMLWlt43GjxCm3D1xWw9+P4P7Yr4AaHCHDzIQLcnIgANyeuFOBv5xwT3mnY3lr8668onL+Ay8Q3xVXdevXQuGkTnUPclvimPaJ127bYsv1PXV6cAxOtxTejiTOnT8eH2bIHK76H/PQjTpw+hTbqvYKKb0bKf124CNkyZbYrvjdt3aK/gz3xbeGDNGn0TY+/iTm2XemDDQ72KDBjzOChQ7Bn/z4sWrIYbdu3DyS+ua+YbnDypEn4tG07FMqXH1UqVET/Pn31QF174psWGQr6bNmz6UGB4S2+KfIrVKyIydOmYsee3bq3wR3iOyTYI9Ggbr1IJ74JrVC0ekWk+Ca0dQmCIAihRyLgkYiwRsCZy7lB3brGmm2YXzqk6Ckjs3ny5EEpJRSZds/niQ+WKjF/8uRJ4y/ewNdbtmqlrSbMAR0UnmNs6Y8bM8bY8jaMxnw/eJAe0GgrTzWtJmvXrAk2JeLcX+brFIC2YOaLwT8M0oWIPu9h+z0oeM6cPo0Tf5/A5UuXcO3aNT3dvHEDN27ehK/hfY4dJzaSJ08RkPWCXu5/ldDjoESKJ1uwcVKmbFntN2amFGsvNy9P2kc4CJM2Ic7PnD7jUOEb2hIouNnY4H7m/w2tx98ZOB6gVu1a2g9vyxrkDoKLgNMexGN2XwlZ9gTdv6em+2pZzSlu6b1/9eolXr/2g9/r1/BVE+ev1T5/7eur5mpZvcYoMI8VxSgLH9FmEpbsMZGN0AyclQi4+ZAIuDmRCLg5EQtKFCUsApw+6O7dbD/sKCJqK7FELzaj1+yaDwpvyLSOsHALU+4xW8PB/QfsDhRkcZ42bduhctUqNv2oFD7MuBJcKsGMGTPi64EDUCJI5hILfI9FCxZg1IiRxpa3Gfj9d2jWvLmx9gYKWFaY/Kpvv0CDO096n3F6gJqtSpiMsi5euAir1DELWrKfMHpfTQnEqtWr6TSLjHwTCkCL0GaD6fjx4zb/f1AYoc+RM4cS3AXVlF83AJgnfOWK34LN7OEKmEawmGrcFC32kf4tzAjiSmgpemoIWw725PnEY2TrvLLgTBYUR+B3YMOUXn5OZ73P6oYY921EpwmMCHgvmDlntrHmOCLAzYcIcHMiAtyciACPooRFgDNKlztHTmPNHwqnTp07axHIaB4FbfXKVQKqKLLwBgfKMZ+3j89T/LZ8uc6hbU9wMDLOKG7b9u105NUWFJgzpk1T4nuKseVtChcpjF59+iJvvrzGlsDQ7zx75sxAxVyCwlSEXw345i2rCRsPS5Ys0f53PniCwkwqtWrXNtYcw1qA07Jy/Ogx/KNEmi3YMGnYqBGq16ypRTPF3DH19xbRfUmJOkegqOR75c9fQAtupiC0ZGpZsWy5fr/wwjIYtFix4lp028r4Yg/uc+Zxv3L5svZh37xxUw9UZCODvubHjx/5D158ZFl/HKzdwV4UNiwCnBafUydP6mPoL7hP6t6PsAhtppVko4jZevQ8aRKdwtCyTMHDa5ANs9ix1RQntl7nPmAvC/fV5UuXjf12SS8zs42d23e4EpbxJyLAzYcIcHMiAtyciACPooTVgtL7yy+1OGNatWEjRyBz5szGK/70+bKXFh+ly5bRPmQKn+VLl2KFEt7BVXek+CtStIiuVGmvuqIjwpsWk8979rB7ru34cztmKeG9Y/t2Y8vbUPgzCh00QwhF3/SpU3V59+BYvGypztLhDPXr1NXiOThYibSw2kfcX/9e+FfbUngRO+Ll5f/JkSOHLuGfRzVKOKe9hPDh+efWbfoYbd2yJVy8wbTRMLLtL7qLIX2G4H3czC7C30bReOXylQCxzTmPgyP2GUdxhQBno0cXvtm7D0eU+ODxcUbYsuHJzCNp0nygjouaPvgAH6hlDvZlhhKKbksPhzX8DDZ6bykhrQU2J4vINkF0nXn0eS1wYiOPYyFCGjsREiLAzYcIcHMiAtyciACPooRVgFse5rYeohRFnNi1TzE5YthwnavaFkzTRssKS6IzChvcQ5lijMKbxX3sQetLl65ddVq1oPA7/7Z8hY54B5dKj9H84SNHvhU1p7iaMmlSwEPfHqEph85oei/VqNm8cZOxxTVQuHEwK4U2fw8rmwYVcPSUU3QzVSMbN66Eqez42RRerKLJxoMt773FlsFosSVifEoJ3+DytbuasAhwnuM8NxyF5zkrzmbPkV3vk7Tp0qtj9b4+b3l8LFYZH9WIfaYmNmZ5/jNSffvWLSW01cT5rZtquo07t287lTc9vKCVh40q/qZsauI8a/Zswaa5DC0iwM2HCHBzIgLcnIgAj6KEVYCHBIXC8J9+0r7hoFBgVKhUEfXrN0DxkiVsCjJrKDymTZmixPd0Y8vb0Cvdt39/nb84KBQq8+fO0x5vRgntkSRpUvRVD3VWnWQk0gLF+uQJE7Hyt7d/izUcdFmzdi1tBbBVJj44WBHz45q1jLXQQf99rty5A8Q2hTe/iy04gJLHhiXrQypF7ygUlewRyZffX3BzClpBlNDeQtFvsWRwwC2raYYmQstzKX6CBKEqBsTIP/Ot58qVWzcO8qn9ZgtHBHjnDh2xccMGYy1k2DCKo84R7jNPda49UWLbIrQ5+DI8eh94TvN8oFBnj1RYP4O9GRTZzIRjEdvMjhNcI9qViAA3HyLAzYkIcHMiAjyKEl4CnCKKUerJEye95belOKvXoD5q1qqlH94hQVE1dcpUnVLQHgULFdKDK3PmDOxJZwSR9pJlS5Zi86ZNwUYHKeKY1rBTl86BhDMHP04aP0F71Z2lQMGCupJmCdXAoK0muEF+hD0GWTOGfF1QRL333ns6Sp8uXTqkTa+mtGl1WfO0aj24xgzF3YZ163W0mznJ7VyuDsPotkVoU3RThNlKscjo7KFDh3DowEE9/0ftVz6oHYVVLhkdph2Dtox48ePhxrXr2oLCm9epU6dC/C3MmsNzhfYHNlDYUHG0keSIAB/0/feYM8v5gYSuhmKHUXTat3he+zz1wVMfCnsf7YWnNcXZSDkFNQcxU1xnzpIZWbP5C25n/PrhgQhw8yEC3JyIADcnIsCjKOEhwP9YsxY/DR2Kq1evGlv8oeD56ptvdFTWEWj1mDNrFn6ZN18LaVvYy2rCQZXLlizR0V1GvkOCAz1ZiIcRSQtHDh/GhHHj3yopHhposen/zdcOVWpkZhnrSpta1GbLrsS2EtlKXFN083tSWDkDy7rPmzsXq1eu0iI8tFDUlSxdGsWKF7Mb3eYtQBfyOXgQB9V06OAhXLp40Xg1eCy2DIq7HDn8LQwUe2y87Nu7V2di2bVzl0MRe/ZmFFY3M97QOGXNljXEnhZ7OCLADx44gIHfDECKFMnVve4xrqlrwB32GQ60jBU7tt1iVc7CY8CeE9rB2HBkGkj2FIR234UnIsDNhwhwcyIC3JyIAI+iuFKAM2fxF927Y+f2HcYWfyg+e/XtoyPejNyGBAvC0J/NypH2YD7sPv37ofbHHwe8J7NbrFn9uxbeTGnoCJmzZMHXA75RYrK4sQU6KkzhTbEXVhjh79i5M5q3bOFUl7ytNIShgQ/Cjes3KOE9Bwf2HzC2Og+z1jBNHCdG2oPCHg+WX6fQ1tUz1eRIqXSmF2SPiPZA58ihxTaj+BTb7A04fuy4Ibh3qAbRkRAj5jzX2CiwRGm5/9kAo6f9k2bNwmSLcESA24K/g3Yb7iPOX6q5ZZlzivZ1f6zDubNn9XpkgoKcPQhx48VDXNUI4JwWqAQJEiBBwgRadNEalDBBQkSPEV2X4feK5hUw53HmGBH+H/YWhQYR4OZDBLg5EQFuTkSAR1FcJcC9vb3Rsf2ngaKcFDvtO3yKTzt21OnPgoPd4RTPzEhCa4I9+D7dv/gczVr4C1qeart37dIWkw3r1zssYCjMPu/xBZp88kmALYQZPyaOn+CSdHss7/1J82Z6ICgFiLOEVYDT7jFt6rRgbTvBwYZJufL+opt2jaCWEu7nQwcPqn2/G/v37dPedUe8xIzeF1RCK3/BAnoeNPsJez127aDg3qkbQpb7hSvYtG2rzcaDo4RWgIdE5vQRX8nTDISmCA8RAW4+RICbExHg5sSVAtx8fZRCuLJl82Y0qFM3kPim1WLD5k36gRic+Ka/e+L48ShdvAR69expV3wzyt3u0/bYuXePLqPOwZ0/jxqF0iVKolXzFroh4Yj4ptimeKcY45zvS8tMrWrVdQl2R8Q3u+MrVa6so61BYTSPkVaWpqe437ZtG34cMgTdOnfRpcpLFiuOIT8MMv7a9fyxdq0WdB8VLuK0+KY/mt995ZrfsXb9OnzZu5dqlBXR4psNHYpspnxs2ay5bkxzzowftOrYEt/8f7QdMYf7xCmTsffgAWzcshlDh/2EBg0bavHNokvr/vgD33z1FcqVKo3ypctgwNdfa7+9K8U3YVVKM5ImDI2CdwkOcr6o7iGuPu6CIAhRBRHgUYjJEyfqyLelXDYF7jcDB2LshPE2UwASptpbumQJWisBXKxIUYweOSqgUE9QKJDr1KuLP3fuQLfu3XWGiaaNGmmhRpvI9WuBc4nTmsICJbbgQMjVa9dg4Hff6i5v5i+vWrESPuva1WbJe2s4AJAe8dnz5movNqPtQUuws+Q+s59wgBuLD1UoU1b3LjBrC0Umxf2N69dx+vRp43+4Hg58dZZChQvpdIu79+/Dtz98r/ODE+aM/nXhIr1/ihQoqLOzMKMNexxsNXZoO2D5+569vtSt+CN/HceS5ct0Vhp67C2ZN/bv268rjdb7uA4K5y+gGycsgMT9Fp68ePHcWDIXefLkMZbehj5/7lfaPCw9Ne8qvBZ5zbBxJwiCIDiPWFAiEaG1oNC/2rdXb10l0QJtHbRLfFSsmLHlDfz7LZs268/b/uefDtkVaH/o1acPnjx5rC0mjO7aGjxIkUKBxxzD27ZtxYXzF4xX/KEwpnimOKRwXL50mS5Z70g5ddowmFYwabKkGDdmDJb8utjugFBHYWGfX5cuMdZsE1oLCqOIFDIhQQtFXdWwsUSiCaPRFNd62rkrxAqaPN481iymU6hQIe27tuXxpz3JYithqf7wgkVdsmbNiixZsyCjurekTJkKyZMn0wMxXTF4MLwsKI7CMQ7fDRgYYhrMdwFn7ChiQTEfYkExJ2JBMSfiAY+ihEaAM61g6xYttQfYAsXXlOnTAlWtZESTJdRpUeGASkczb1BI0T994/oNXarenhBkdgamM2Te4fFjx2lhbw0F4meff46mzT7RkdeFCxZgxtRpDmVF4UOc3nX+v6mTJmPO7Nm6EeEMjFgy0k5ha82gIUPQqEljY802YfGA88FHAeqrvjszkVjD79OpSxe0atNa20r4GVocK9FNi4mdS1fDho4lrWLxEsW1FceWsGWpc4p4pjp0tVjkYNky5coib9682k/OQZzuwt0CnI1U2nuY8WWP2p/Hjx/XAzodgeceB7Qyc0nCRAm1+EmQIKG+JvSktnEeNAWjr2pc+qjjxx4tPT3xwRMfta7mXGeO8oePHmo7Dwe2MusKc+pbesBchQjwyI0IcHMiAtyciACPojgrwCkKOrRvHyjTCTNkDPz2W5w7e05nHzl+7JgWC86mRGOkknm8GaXmwD5b0GJSu87HSng30MtjRv+sC+tYR6W1D1sJeFpWKBDnz52LWTNmBlt8x8KM2bN0NU6KbeZzZqTcUU8qRc9HxT7SKfoyq4cP848vmD8/kF2D3viRP4+2mSfbmrAIcA5e5DG1Tn/HyHSDRg1RpUpVnS+b0Whm3wjON8//w8wkFNsU3cyfbS+LCKtWzpg+XVcYdQWly5RBrY9r64wmzDMemgg2fxt/g7PpGu3hLgHO62fp4iVYvXo1njx+bGy1De0pFNm0e7H4FMvUMz88xTV/P6dXL1/p/eDp5anPUcvk6ck5t0Uz5tzmqa8fy2ssEsSy90xz6Cos16rlMWE9ZwOD39WZbDUiwM2HCHBzIgLcnIgAj6I4I8D5cKTfm9lCrGHUOyS7giNQlNoqDkJBQCsIo90Uxzy95s+bh/Fjxr4ljsuWK6c9x4mTJFY3m5m6XL2t97SGnvFVa37XubX54KDdhXYTDvQMCYo75iCvXKUKylesoH8DC9xMHDf+rUg7Gw7dPvtM+8lDEhihEeA8PuPHjtW9AUEvQQ70e/TwYYipASnmilFwFy+hrSX2Isy0lbA4Ec+fsMAoNlNJ1qxVU+c4Dwp/B8cHXLt6Tfv9r127qiYuX9eRdvbGvFCNJf6No/m2LdFV7i++z/Hjx3RvDgsacWCuPcJbgLO3okqFisaaueD5ygYyxTi9/EmSJlHL/utc5jaeOzyGzohnVyAC3HyIADcnIsDNiQjwKIozArx/335Y8qv/g84RGE1jOjtG5v46dtzuQEt7cDBg3fr19cBGPugJq1n+OGQo/r0Q2OfNz+n/9Ve6gMv0qdMwa8YM4xX70Is9fdZMnf2Dp+zvq1fj51GjQywYw6wu9JNTdJcuW0bbOugnnzdnrt4/9OpaQ2FCoX7+vL/wq1uvnh7sGFx2GGcFOC0AXTt3fisHe0gwUkofN60dFN620vQxYsmS8bx5cx+FFnrxm7VorvZZ2QCrEiO03Hf+AttfXOtJrbOIDQe6htSAchY24thgvKo+1/q9mbGFg0btEd4CnL+XWX0iO7weaCNLn8G/Smu6dOmRJVvWQEWuXIkIcPMhAtyciAA3JyLAoyiOCnBWtqSwDY7/vfee9ubSm80KehTDzG4xacIEhz2ijLLVrl1bCe962sNqgVUchwwarL3F1lCYd+/xBYorATlz+gws+OUX4xX7NG7aRGdqsVgTKOqZiYWfERz8fS1btUTDRo10bm8+ZPh9+Bv5Ho76cy0wVzjTGdKSEhRnBHjQh11w8Dez4VG8ZAm9zyiUbNk7GOGmhWao2uehgcKexYeqqZs8q5VS6DLC633mjJq8cfast55fVkLYzu0iQlivjiOtF6/UPqWHnvvW1/e1+j0JcO/efTRu0ED/nasFeM/Pv8CqlSuNNSE4gvrDRYCbDxHg5kQEuDkRAR5FcUSAL1m8GDOnTUdCdQPVA7oSJkLceHG1BztR4sRImTKlFt3WJck3bdiIoUOGOFR+nBYTRpTr1a+vI8rW/ui7d+8qcTxSZx+xFrj8G+aspkd59epVDkV+mQmlVevWAYKTlS5HDBseYu5vNipat22LylWraH8qK0quWb1apxZ0xFceHLSljBg1ylh7g7MR8Hat29gsmc99myt3bu1NZ6SbnmpbFgFGX3fv3q3tN/SGOwujxx07d9L76uatW6YX2mGF3uj1mzbazAUfGpiOMaznUlRBBLj5EQFuTkSAmxMR4FEUZywojkDhNfiHQXqQX0gwewktJhxsZ7GYWOBgT94sGD2n19caZt9gufKdO3a8lWHEFuMnTdR2EQssmT5y+IhgvyNFOgU3hXc+JS6PHT2qK3WuXbPGIW+4owweOgQNG7+dEcVZAc6IdbVKlfUyS7sX/aioFtwcOGlrAB0zWOzbs1dnjmFOdmdh7vCKlSvrLBqXL11Wn+8vuN81oR0c3K+/LFqo93dYYZ51HhMhZESAmx8R4OZEBLg5EQEeRXGVAKcQpn+aGUeCg0K7lraY1Ef2HG8sJtawCuKwoT/aHNhJ24Yj6QBpZZk1d05AURlCkTpKCW+mRLQHB2TSYtKiZUudf/x3iu7ff3fJINMRo0ehsLqwOAiTjYorl6+o5VQ2BzqGZhDmkSNHtN2DmTGCQgvQgf37sWf3nlCXp6d9hV77W6oB4qyf31XwO/BBzvMtuAwuoYXvz94V9hxEU/PozAji5YkH9x/YTKNJK8qKlb9pe1JYYLrGeXPmwIP/VOOPPS1vJnVT9Qi8jQ1ENgqDNk5dCT/D8lnWn22ZaCtyhT/fng3KFjly5tBpPK0RAW4+RICbExHg5kQEeBQlrAKcA/SYbYQDI+1BMUNrSX0lKoNaTKw5ceIEhqibAyslhpZqNarjO/Ue1jd7DvIb/P0PwQpvDhBr2bo1ChUpjK2bt+jBhmeVYHcFFAVdunXVosVRQiXADx/W1xetQbFjx8GunTt0+sXwrjAZHnxct462F92+dUvbkB4+8M/gQkuTo9lOrOE5mCJlCqRK9T+kTJUSqVKm0o2tePHj6UGD8ePF17YqinrmvH78+JEeAKoHh16/rib/gaG2mDl7NkqWLmWsCfZgFhteg3PnzA00iLp3375o3+FTY815RICbDxHg5kQEuDkRAR5FCYsApze8f5++xtrbMCUZi+AwzRzTlNmD0dSRw4Zj2dKlxhbnGfDtQHzSvHmgSBrf98sverw1cNMaWjRKKfHEvMf0dDPbR2hg5NRWdU9WvOSgR2cJjQDPnN6/omVko1yF8ihXrjxe+b7S+cSPHjka4oBYR6HfnT0OzHTz1Me/mAyjxoxm27lNOc3iZUu1t15wDEbNO3foGFAVtbBq9P6yaJFeDg0iwM2HCHBzIgLcnLhSgDtfMUOIdHw7YKBd8c0S8ixos3HLZrRp29au+Ga0ceL48ahQpmyoxfeS5cu1J7R5y5YB4puD2apXqYpihYvYFd+MenJwIvNKjxoxEiOGDXNafNP/zIj7mHHjMHnqVGPrG2bOmRMq8e0MvGg5kLRIwULGlsjHlk2b8XX//rrM+q8LF7lMfBOeY9xHPLZMA0n/PkV4WMU3I+pVq1dDm3btAlV/FUKGPWDM/LNp6xZs37UTEyZPNl4RBEEQwoII8ChA9y/8o+bWMIvJpm1blfCcrXMth2S5YIR34YKFDpeot8BMG/sPH9LCO2++vMZW/6hL0UKFdUaJM6dPG1ttwygoB2PasxXYgx72Bg0bYuqM6dh36KAW31WqVUWbVq2Mv/Bn4PffqYZI+Od0Zst5yqRJTlcdZYpIlpUvUbKEjoR82rGDzk0+beYMrF2/TmeLiQqw0cboOKPk7JHjucWqnxy0yzSKtEeMHjsGi5YsxoxZs4z/BZ0RaKxqPPb7qr/2gQvOwXEK7CGjd14io4IgCK5BLCiRiLBYUKpWqqx90i1bt0LPXr2CLSxjD1YynDxxIiaOn2BssU+Hjh3Rs3evYIW9PRvGsBEjUL1mDeTMms3Y4jiMcJYpVxaVKldBwUIFdcnuoFh3g9NSMWVa8DnTQ8JRC0pwthN6nMur78JKnUWKFHFqoOCG9evRpWMnYy1iYJSZhYE4GFIPiozmpaboev8zisp5tOhquxcHTEZDdPUat8eJG0f3cMSNq6Z4cfVyPLVMvzd7LfRr3KYmZ85Zd5WiF5xDLCjmQywo5kQsKOZEPOBRlLAIcHo57Q2odBaeFzw/bDF/4UL13YoYa8Ez5IdBmDVzprH29slco2o1uxYHZlhhZDhb9mw6RSILAWXNlk1HSB2BEfXPu32GzX++nY/bWRwV4C2bNQ+w2dCHTksEUwQydSKLBYUWDtwsV6q0sfYGPkSZBpL2nSRJEiNOnLg6j3poLETMHc7v+WHuXMiVK5cuS+/MQFV3IwLcnIgANx8iwM2JCHBzIgI8iuKqNISuwDqay6wIX/Ts6bTAZ1aWOjVrYdykiTbLqu/dswcrli1XAjKXthHQn05bCQUVlx1NhxbeOCrA+XttReTdBb9j6xYtg7URsWHAlJMf5sqN3Eq4c99nVNe+Wfa1o4gANyciwM2HCHBzIgLcnMggTCHCWbdpI3bs2a293fTehia6TjG6au0am+KbFP3oI/w0YjiatWiBmrVqoVjx4jrSzSqekU0QkogU38xD3bZV67fEd4YMGVC/QQOdr/m331fj6N9/YemKFfj2++9Qt349nUs8Mu5rQRAEQTAz8mQVQgWLyLiqtLcQvjBnOyPftCHR8tKhUydMmT5ND45dv3kThg77CY2aNEbOnDldZlMSBEEQBME+di0onzRugmdGtCxR4sQRGr0T/GGatiePH+sBalxOkCCh8YoQkbDSY+zYsfD40WPt5aaNwyz4+fnh1q1buhQ7BzJGlWi272tfPLz/AEmSJtGVMRMnSWK8IkQkzGj0Wh0b31e++pyMrSYh4rl75w6SJkuq5neRWF0znh4Sm4toWEXaR10vMWPF0qlYHR3fJIQvDx7cx2vf13r564EDkb9A6OtKOOQBF8xFhowZcP7ceWNNMAOZMmfCWe+zxppgFvLnz4/Dhw8ba4IZoPB2Np2pEP4ULlwY+/fLWAmzwWrJoakoLIQ/4gEXBEEQBEEQhEiE3Qj4yt9+s1muW4h4YkSPgZev5NiYCXvl7YWIhekq2ZUrmAfaoGiNEsxF7Fix8ez5M2NNMAusnUBLnWA+ypYti2TJkxtrzmNXgAuCIAiCIAiC4HrEgiIIgiAIgiAIbkQEuCAIgiAIgiC4ERHggiAIgiAIguBGRIALgiAIgiAIghsRAS4IgiAIgiAIbkQEuCAIgiAIgiC4ERHggiAIgiAIguBGRIALgiAIgiAIghsRAS4IgiAIgiAIbkQEuCAIgiAIgiC4ERHggiAIgiAIguBGRIALgiAIgiAIghsRAS4IgiAIgiAIbsTjP4Wx/I7wAne8j+Pk+eu49zIOUryfCdlzp0MiL+NlIQLxxdOHT/DCj6ecBzxixEGiuDH8XxLcju+jSzh54hyu3X6AV7H/h3SZMyFjmmSILc3yiMPvBR7euIyLly7hys2niJniA6TLkBFpU8ZDNONPhIjF9+lDPHnhB+sHp0f0uEgUT+5lbkNdJ08ePcWrENSLh2dMxEsYR66dCMUPLx5ex+WLV3Ht5j089U2CHOULI41cLu+SAPfFzZ1TMPjHOdh84g5eGlsp9GKnLoianb5Cnya5kUDEhfvxe4gzG+ZjxvRfsObQDdVE8idutbHYM6EGYhvrght4fQfHV83DnAW/YevRy3jsa2w38IqfDkU+/hQ9ejZEnoRysbiHZ7i673csXvArftt0DNeevja2W4iGxDmqosVnXdGqcmbEM7YKEcCjHRhYuy0W/Bv4wolVaRT2T/lY7mVu4rX3eNSvNgp/B7l/BcUzVRPM2DYYJWIaGwS38eLGfvw2ZyHWbtuNw6dv47lFacYoiR92z0HjpMZ6FOYdecL64sKv3VC/9Uj8EUh8k//w7OoBLP66KT4ZvB33/YzNQvjz4ir2LxiCDpVLo1ankVhuJb6FCOD1ZSzpXBONeozDqoNvi2/y+vG/2D2vP5o3/A5bbsvF4hZeHMG0nv0wcdVhG+Kb+OL+P6sxplM9NB+2F4+MrYK7eYqDEwZjSRDxLbgf36tXIbcnk/L6Jnb+3A5VyzXB15NXYvcpK/EtBOKdEOAv/5qInt+txw3r+2KM+EgYx/rnPcWp2b3x7ZrbkOvWHbzE/p+aocVX07Hl7CPYkhWCm/FKiYxp4wbqOrfHszO/YMDQDdJgdQcx86JE0STwMFY1HoHW/PnvCf6e/j2mHxMBGBG8+Gsahsw9g1fGuhBxPLl2Te5NZuTFaczvWAftx2zB5Wc2njQeXogeMya8pHNVE/l3g99NrBo3C38/M9bVYyxR0R5YtPsQ9u/fgJH10r3xf/ndwobxs3A8cIhcCBdiIEuOTAjo+fOMh5Qp4wcWGYKbiYHc9Woje/RoSJK7Lr4Y9QvW7DyEg/s3YcnEHqiYzrqf1g831/2KDXflKRf+xEGhkiWQqWAddBs6BfPX7MChUydxZNdyjGpbAAmtL5pXZ7Hjz/PSoHU3vt6YP3gG/nrOlWhIlysH4svNLILwxbWrNwMCaR5Ji6JFn37o0+/tqXfXqkgvBnD3oLTYhgGdMXTTDXWELERDsrx10HnASExbvhUHTnnjn+NT0SCx8XIUJ9J7wP2uzEHLCt9hr8XbEC0buvy2Cp/n9L/q/G4vQ+fyvbH5sfEzvdKgxS8b8E0RGQEQ3tCn16DmLPiWa4o2HVvgw10dUHPY0YCLUzzgEYBqhB7ZcR1pSuRB0iADk58dHII6jafjnEXdeaZCo5lbMai0GCgjDN9jGFG9AaacsVw1XsjYYQlW9c2rmlOCe3iNS7+0Q91v/sRD9RjxSFwJP/SIjp++WYPHxl+IB9ydvMD6z4ui28qHujcveuH+2LCwHd6XqGqE8nBjb9TouBQ3LC2jWJlR7/vR6FcvB2Q4kW0i/W65v2s7jloZi6NlKIfyWd80eT2TlkLpfNGNNcXra9i387RVC00IL7wyNsLo9Vvx28Se+Dh3EiUdhAjHMwXylX5bfJPYufIhR1yrsN5/z/BcR/yECOPpXdx7YtUL4ZEQ2XNlEPHtRvxurMKwn7dr8a3kHrI27YQqcV8FGWskuA2/O7h246lhpfNAvNRpkFwEXsTi+w/mjF31Rnx7Jke5AZPwfQMlvlWD6dEDH9FcNojkp+1LnD11LpAnL1bmbMho3eXkmRCZMv7PSvz54vKZswhwrAjhh7oI06ZN8K6M9H3n8XtwB3etR8sosZ4qpfSzu5OXPg/x4P5d3L7ijUN/zMBXLb/EsmtvBHjcPK3QrmICY00Id/zuYvOIkdh4x/+68ExeGR1b5YLHy5cOjaUQwgHfq0qAW66J/+Cz7QfUKFcRtep+gk+79sKg8cux/8pT43XBHbw4uBgrT75pksbI3RhNEq5AjzrlUSx3LhTIlwf5CpTFx21/wIp/ZBi5hUiujXxx/epNKz+kF5KkSBEk56cXkiZPHMh7/PLWNdwSE6UgWPESp39djsNWYT3PVIXxUXaJtbqPF9g+oDwK5y+EYiUro3HnwVh89IG/19UjNj4o0x0Tp3ZGTjkkbuPxrjEYtvKacQzio1i3nqiSzBPvXPmMyMSra7h6+80D/OX9q/j3wjmcPLIHW9csw5yRX+KTilXRfuwu3HnTdhXCDV+c2bEX16w11fm5+KzrBKw/egG3fRj79sPzexdxYsss9K5bE13mn5KMaIrILcD9fPDEx/oK80CsOLGD/CgPxI4VK/Dgv6dP4SP3T0EIwPfMHAyadhxvHCcx8WGjpigi9m8TEA0pS7TBlz2aoqD0tbuPpwcxafBiWLIOxs77Kfo0SitWugjm9Y2ruBmS/+f5ZWwb3R5thu/HE2OTEF48wamTFwNZTF4+eggmQfGMEQ9xYwTpRX1xGRt++BKTrL3DUZSocTcPKra9vOQmKggGfre34cfPf8b+J28ulFjZW6Fvm+xBepOE8MYjWnTEiBEd0QI9s3xxc8cEdP+4KpoN3ogrYqZ0Ay9wYtpgzDttKL3oWdCsfxtkk96HCMcjXmG0HDQcoyZMweQpY/HToG/Qs1MDFM+QIMj96jlOzvwR872luztc8b2JG1Y9Epro76PSV4vw5/HjOHp8LxYNqIIPrK+dlyexcM42+BirUZXILcA94yJeXOuf8B+eP30WkJ7In//w9PmzwBo8tvp/Ym0VBODRQYzv1B1zT74ZFeGRrAz6jv0CheIaGwQ3ERPlf9qDv0+fxomTR7Bt5WT0bZALCSz3Kr97ODLjS/SZ7R0o2iS4Ht+z8zBkxpseoWipP4DfzikY+/PPepq29VKgVJC+FzZhsto+ftF+SObO8MUzZSHUalQPNatVRPlKNVD3k9bo2PsnzN64FbM75wmcHvLl39i86aKxIoQPL/AqUHJ8T7xX9zv82K4wUrEHNWZyFGg9FH1rpLQSnP/hwSF1r4viI5kjeQQ8Gt57P5VVNPs17t26HeTh5Is7t+4FEuWx//c+kkkIXIji+N3ZjdFtP8X4Q48DGqge8fPg0zHD0SSThPoiEs+YCZE6dyW0/XE2RjdJ9+Ye999jHJg6DX/KGLNwxefgLhy1pK5V+P67GTPGjMU4Y5qy4UJgAe69FhPV9gmLDuB+0B5XwT14JkaR7l+jYXrrh7sfrl++YiwL4YJHQsQLFKzxQprsORA4fpMQRYrmhFU+Ovjdu42ggfOoRiQX4DGQOVvGQCm5np89iXPWCtzvAby93yTtp2hPmzULYhlrghAV8b2yHt+16IBJBx8EiG/PJEXw2YxZ6FEsaWS/Mbw7UFSUzhsoqvfffW+cuS7d6oLwFl5JkSRR4O5tTw+5m4UrXsmRLo11kT0/3Lx69a1eOg8Pj0Bj8TxixUbsKH5oIv3PT1i8JPJYDRTzPbcFm6zS4fjd2oKt1qUvo2VA8VLpxQMuRFmenVmML5t1x4KTPgHiO2a66vh23nR0LZRIxLfb8cWLF/ZMJU/xz5FTsLLnqydXbMSJHVhkCK4l2v9yo1SZMihtZyqRPVmg68QrxYcoqbaXKpAW1qn0Bffy7NTv6vlvfS3FQIZsGYxlIXyIhbyF8yCOsUYnwuXN6/BXoDGWPjim7mPWjpNo6bMiUxQfZBTpK2Gy/OmyjlXRb6MlkueBBIU6Y/SoTiga+xyWDeiE79ZeC+gujJm3B5Yt6QqrWj2CW3iNC5MaoJpUwoxA/PDg4CR07/Qzdt+xiqDGSI2STeoib5DIEfHKWBldamY31oRw4cVW9K/0Nbzz1ELVUnmRLXNmZEwdD89vnsa+lVMxbtYu3LDSFNGyd8XSVT1gFPsVIoCHi1qjWL8/AwSFVMJ0F744PbMnRp7OgPLlCiFr+rRI+34SeNz/F8e2LMbUCb9g/803Fwurlv74x0TUTSlhhXDlwVr0qNgNq418+VBXQqaGgzBuQG1kiuuHm1uHokO3WTgRMOoyDop88zvmtLGy10VBIr8AV7w4PgZNGo/BX9bVdTxjIIbnS7y0bgxHS4sm01fi+9JSyML9iACPaF5fno/21Qdih5W3NSRiVByJE1PrGGtCePDy0BBUbzQd/zriKvFMieo//4ZRNa0HNAnuRgR4BOF3A/OalcH3e6xjqXbwTIpS3y7ClOYZJZtTuPMaF+e3Rf0B2/HA6vHiESMRUib2w92bjwIVTIyZvQNmLekT5Qf6vxP38Ji5u2DEgEpIZX2V+QUR356JUKTHz+gj4luIovz3+DbuMDmrYCLUg2v3PlxxRHxHT4mSvSfiBxHfQlTl6SEcPBEo5YZtYqRG2T5TMFrEt5vwQtqmwzH608BZaP57+QA3gorvdDXw7TjJskXekft4NGRoPB5LZvZEtVzJAw3KVE8tJM5aAR0nLseMTnmCjMwVBEGISLyQunZvDOxUE/nej29DLHggevz3kKdaBwxdvBbTO+RDfOMVQYhy+H2AUk1qoFCa+DatC9Hip0bemt0wcvlqTP40PyTc5kY8k6NE3wVYMbk7quZO+dYAy2jx0+Kj5oMwb8nPqJ9RsmyRd8KCEpiXuP/vKZz59wYe+cVH8rSZkT1jMkhBP0EQzI6vz21cvXgJl6/ew+sE7yFNhnT4IHlcieIJQiD88OLBDVy9eg3Xr9+Bj0c8JE6RBlmyp0FCuVhMgB98rp3G6QvXcefJf4iXTB2bDzMjmQixQLyDAlwQBEEQBEEQzItYCQVBEARBEATBjYgAFwRBEARBEAQ3IgJcEARBEARBENyICHBBEARBEARBcCMiwAVBEARBEATBjYgAFwRBEARBEAQ3IgJcEARBEARBENyICHBBEARBEARBcCMiwAVBEARBEATBjYgAFwRBEARBEAS3AfwfPd9y+pPyPY0AAAAASUVORK5CYII=;" parent="29" vertex="1">
                    <mxGeometry x="140" y="480" width="336" height="61.17" as="geometry"/>
                </mxCell>
                <mxCell id="9aeFHjFmoqaB0tIyLHOO-66" value="location 2" style="shape=cylinder3;whiteSpace=wrap;html=1;boundedLbl=1;backgroundOutline=1;size=15;" parent="29" vertex="1">
                    <mxGeometry x="540" y="300" width="60" height="80" as="geometry"/>
                </mxCell>
                <mxCell id="9aeFHjFmoqaB0tIyLHOO-67" value="location 3" style="shape=cylinder3;whiteSpace=wrap;html=1;boundedLbl=1;backgroundOutline=1;size=15;" parent="29" vertex="1">
                    <mxGeometry x="480" y="370" width="60" height="80" as="geometry"/>
                </mxCell>
                <mxCell id="-CvwGCBz1DSBVIMzxxdN-53" value="&lt;h1&gt;1A. Game setup&lt;/h1&gt;&lt;p&gt;The battleship is hidden in three consecutive cells out of a possible seven (starting at zero), the row itself doesn’t have to be represented in code&lt;/p&gt;" style="text;html=1;strokeColor=none;fillColor=none;spacing=5;spacingTop=-20;whiteSpace=wrap;overflow=hidden;rounded=0;align=left;" parent="29" vertex="1">
                    <mxGeometry x="180" y="110" width="190" height="120" as="geometry"/>
                </mxCell>
                <mxCell id="53" value="outline" parent="0" visible="0"/>
                <mxCell id="-CvwGCBz1DSBVIMzxxdN-166" value="&lt;h1&gt;General Flow&lt;/h1&gt;&lt;p&gt;&lt;span style=&quot;font-size: 12px&quot;&gt;1. User starts the game&lt;/span&gt;&lt;/p&gt;&lt;p&gt;&lt;span style=&quot;font-size: 12px&quot;&gt;A. Game places a battleship at a random location on the grid.&lt;/span&gt;&lt;/p&gt;&lt;p&gt;&lt;span&gt;2. Game play begins. Repeat the following until the battleship is sunk:&lt;/span&gt;&lt;/p&gt;&lt;p&gt;&lt;span style=&quot;font-size: 12px&quot;&gt;A. Prompt user for a guess (&quot;2&quot;, &quot;O&quot;, etc.)&lt;/span&gt;&lt;/p&gt;&lt;p&gt;&lt;span style=&quot;font-size: 12px&quot;&gt;B. Check the user's guess against the battleship to look for a hit, miss or sink.&lt;/span&gt;&lt;/p&gt;&lt;p&gt;&lt;span&gt;3. Game finishes. Give the user a rating based on the number of guesses.&lt;/span&gt;&lt;/p&gt;" style="text;html=1;strokeColor=none;fillColor=none;spacing=5;spacingTop=-20;whiteSpace=wrap;overflow=hidden;rounded=0;" parent="53" vertex="1">
                    <mxGeometry x="40" y="60" width="190" height="320" as="geometry"/>
                </mxCell>
                <mxCell id="-CvwGCBz1DSBVIMzxxdN-167" value="&lt;h1&gt;1A. Game setup&lt;/h1&gt;&lt;p&gt;The battleship is hidden in three consecutive cells out of a possible seven (starting at zero), the row itself doesn’t have to be represented in code&lt;/p&gt;" style="text;html=1;strokeColor=none;fillColor=none;spacing=5;spacingTop=-20;whiteSpace=wrap;overflow=hidden;rounded=0;align=left;" parent="53" vertex="1">
                    <mxGeometry x="40" y="400" width="190" height="120" as="geometry"/>
                </mxCell>
                <mxCell id="-CvwGCBz1DSBVIMzxxdN-168" value="&lt;h1&gt;2A. Get user guess&lt;/h1&gt;&lt;p&gt;Use the prompt function. Get number between 0 and 6, from the user.&lt;/p&gt;" style="text;html=1;strokeColor=none;fillColor=none;spacing=5;spacingTop=-20;whiteSpace=wrap;overflow=hidden;rounded=0;align=left;" parent="53" vertex="1">
                    <mxGeometry x="40" y="560" width="190" height="120" as="geometry"/>
                </mxCell>
                <mxCell id="-CvwGCBz1DSBVIMzxxdN-169" value="&lt;h1&gt;3. Displaying results&lt;/h1&gt;&lt;p&gt;&lt;span class=&quot;fontstyle0&quot;&gt;we’ll continue to use &lt;/span&gt;&lt;span class=&quot;fontstyle2&quot;&gt;alert &lt;/span&gt;&lt;span class=&quot;fontstyle0&quot;&gt;to show the output of the game. It’s a bit clunky, but it’ll work.&lt;/span&gt; &lt;br&gt;&lt;br style=&quot;font-variant-numeric: normal; font-variant-east-asian: normal; line-height: normal; text-align: -webkit-auto; text-size-adjust: auto;&quot;&gt;&lt;/p&gt;" style="text;html=1;strokeColor=none;fillColor=none;spacing=5;spacingTop=-20;whiteSpace=wrap;overflow=hidden;rounded=0;" parent="53" vertex="1">
                    <mxGeometry x="40" y="680" width="190" height="120" as="geometry"/>
                </mxCell>
                <mxCell id="-CvwGCBz1DSBVIMzxxdN-170" value="&lt;h1&gt;Game over&lt;/h1&gt;&lt;p&gt;Game finishes when all three cells have been hit and our number of hits variable value is 3. We tell the user how many guesses it took to sink the ship&lt;/p&gt;" style="text;html=1;strokeColor=none;fillColor=none;spacing=5;spacingTop=-20;whiteSpace=wrap;overflow=hidden;rounded=0;" parent="53" vertex="1">
                    <mxGeometry x="660" y="680" width="190" height="120" as="geometry"/>
                </mxCell>
                <mxCell id="-CvwGCBz1DSBVIMzxxdN-171" value="&lt;h1&gt;2B. Hit&lt;/h1&gt;&lt;p&gt;Check to see if user’s input hit any of the ship’s three cells. Keep track of how many hits there are in a variable&lt;/p&gt;" style="text;html=1;strokeColor=none;fillColor=none;spacing=5;spacingTop=-20;whiteSpace=wrap;overflow=hidden;rounded=0;" parent="53" vertex="1">
                    <mxGeometry x="650" y="420" width="190" height="120" as="geometry"/>
                </mxCell>
                <mxCell id="-CvwGCBz1DSBVIMzxxdN-172" value="" style="shape=image;verticalLabelPosition=bottom;labelBackgroundColor=#ffffff;verticalAlign=top;aspect=fixed;imageAspect=0;image=data:image/png,iVBORw0KGgoAAAANSUhEUgAAAuAAAACGCAYAAACc7D9nAAAAAXNSR0IArs4c6QAAAARnQU1BAACxjwv8YQUAAAAJcEhZcwAADsMAAA7DAcdvqGQAAEjMSURBVHhe7Z0FeFTXFoVXEtwdXmlxp7gWd5fiUlyKlxaKtoUK0qLF3SlQtEChOBR3aykSpLg7QUP6zjq5EyZhJplJJpMbsn+++12ZMHJ1nX3W2dvjPwUEQRAEQRAEQXALnsZcEARBEARBEAQ3IAJcEARBEARBENyICHBBEARBEARBcCMiwAVBEARBEATBjYgAFwRBEARBEAQ3IgJcEARBEARBENyICHBBEARBEARBcCMiwAVBEARBEATBjYgAFwRBEARBEAQ3IgJcEARBEARBENyICHBBEARBEARBcCMiwAVBEARBEATBjYgAFwRBEARBEAQ3IgJcEARBEARBENyICHBBEARBEARBcCMe/ymM5UDUqVUbjx49MtYEM5E6dWpcvXrVWBPMwPvvv48rV64Ya4JZyJIlC86cOWOsCWYgdqxYePb8ubEmmIXs2bPj5MmTxppgFhIlSoQHDx4Ya4KZ+HnsGOTKndtYcx67ArxAnrwiwE1KhowZcP7ceWNNMAOZMmfCWe+zxppgFvLnz4/Dhw8ba4IZiBMnDp4+fWqsCWahcOHC2L9/v7EmmIVkyZLhzp07xppgJhb8ugiF1HUTWsSCIgiCIAiCIAhuxG4EvEHdegFRiq6fdUPy5Mn1shBx/HX8OJYuWQoPtZw+Q3q0bN3a/wUhQpkxfTouX7wEXkiNmjRGjhw5/F8QIoybN25g4oSJ8FAXS7x48fBl797GK0JEsnrVKhw8cFAvlytfHqXLlNbLQsTh5+eH7wZ+q64VD1AO9O3fD7FjxzZeFSKKvXv34o81a/Vyrty5UL9BA70sRCzjxozBnTt39fL3gwehQIECejk0OGRB+WPjBmTKlEkvCxEHH149un+ul4sULYr5CxfoZSFiaVS/AQ4fOqSXx02cgCpVq+plIeI4+c9J1KpeXS8nTZYMew9I17oZ+KpfPyxe9Kte7v7FFzq4I0Qsvr6+yJ45i7EGHDhyWPuOhYhl9sxZGPzDD3q5eo0a+HncWL0sRCwVypbDxX//1ctiQREEQRAEQRCESIQIcEEQBEEQBEFwIyLABUEQBEEQBMGNiAAXBEEQBEEQBDciAlwQBEEQBEEQ3IhkQYlESBYUcxIVs6AwRenpU6eQ88MPESNGDGOreYjoLCh3bt/GlStXcfXKFdy9exdPnz3FU5+neKb2G5efPX0Gn6c+ev7y5Ut4enrAyysaokXz0nMvL8691LqxzO2enEdDdDXFjBkTcePFRdy48dSk5lyOY8y5zu1qmUVvuO7paY5Yi2RBMR+SBcWcSBYUc+LKLCgiwCMRIsDNybsiwB+r651ikVXXLNNdNZ07dw67d+7Cw4cPjb98w5Tp03Q+Z7PhjAAvXqQobt26ZawJS5YvR958eY011yIC3HyIADcnIsDNiaQhFFwKC/yMHzsO/Xr3QctmzfFxzVr4pHETdGjfPuBEEyIPLKxx//59XDh/XjcMNm/ahGVLl2L61GkY8dMw9O/bD507dESTho1QtWIlFC1UWD+A86tGd8Vy5fX2bp274LsBA/V5wWIQtsQ32bt7j7EUeRHxHZjr164ZS4IgCEJ4IRHwSIQrI+Ds9qYYmzVzprEleLbu2I6nPj4Yrv7Ptq1b9TbvC+f1PKoTmgi4t7c3vlJCmPYC2gP8LQeeatkLr1+/xrNnz/Cc0/PneKamF2p68uSJPm5moljx4pgzf56xZh6ciYBnTp/BWBLIhMmTUKlyZWPNtUgE3HxIBNycSATcnEgEXHAaRrX+WLsWPw0dimKFiyBn1mwOi29StmQpVK9SNUB8E7OJwcjEzh07cOTwYRw8cAD79+3Dnt271bad2P7nn9i1c6cW9P/88w/Onz+vj929e/dMsb9z58mDDh07Yva8uTj691+mFN/OkiNnTmMp8kEveNNPPsEnzZujecsWaNGqJVq1bo3WbdqgTbt2envdevVQtVo1lC5TBoWLFNa+/cxZsiBDhgxIkzYtUqdOjVSpUiF58uRIkiQJsmbNary7IAiCEF5IBDwSEdoI+PKly9CnVy9jzXV8PWAAWrZuZaxFXUITAR85fAQmT5xorJkHRuIzZMyIHDlyIHuO7GriPAcSJ05s/EXkIKyDMAd89TUWLgj++mJUqpAStMnU+ydMmBDxEyTQ8wRqHj9+fHh4eBh/KViQCLj5kAi4OZEIuDmRCLjgFDVr18L7779vrLmGj+vWQdXq1Yw1ISTY+0BRR389LQ9mEd8FChZEsxYtMPjHoVixaiWOnfgba9evw4jRo9C2fXttMYls4tsVvP/BB8aSfdb8/ju+/WYAunbqjOZNP8HHNWrqniIGL7JmzIT8ufPo9drVa+jX+Xf9+/TFj0OGYOL48Zg/bx5WrVyJP7dt070hHOzK7CnMMCO9S4IgCO82EgGPRITFA06h8Mv8+caa82TJmhV9+/dHyVIljS1v4KA/Wig2bdyEgd99a2yNOjgSAY9onzF95rQWFChUSInuAsiVOzfSpEnjsigtRePlS5fUdBmXLl/SAzfPnj2LQ0ePREgKvLBGwHk8eVxjx46tU/89efzYeMW9WFIRRo8RQ6cf9F+OrubR9bplmdtjWC0zqvngwQM8evhQD6B9HAHfv8eXPdGpSxdjzR+JgJsPiYCbE4mAmxNJQxhFCa0AP3HiBJo1bqIH8TkDH6DVlIhJmy6dseUNHBy4c/sOJbo36gwbFugNLl6ihLEWdjgYccXy5eqEv4h+X/U3tjoGBzPSU82MHi9evMCRv44jXrx4xquuwx0CvF79+uCl+q+68Dndu3vXeMU2FI558uZFwUIFkb9AQeTLny/Mv53H/JwS1d5nvHHhwnl/sX3pop7To26LxcuXIV++fMaaffjb+P783q7A1XnA2cC4cf0Gbty4HjC/eeOmmt/Qv50pHCl0ec+U6LU/8eLHx5Hjx4w1f0SAmw8R4OZEBLg5EQEeRQmtAL9y5Qq8PD2ROEkSxIoVC5cvX8ba39dgxLBhxl+8gQPS2n3aXg/aYiTNGqa227J5MzZt2KgHEVIwBYX/56T3GWPNefiec2bNxsjhw7Uos8aRrCtsZOz4czumT5uG48cCP/w5WO27Qf43NFcSWgGeMmVK/O9//8P/3nvPf1LL/164oHsqylesgG7du+PihX91GkHaFOylAiQcQEc7if9UQPu2gx4/R2FjhXYI7zNntNj2VsfzrJrzvLFzu7ALxwhwrAAFKhsOVy5fwXVDxN68eUMJ5X9w4fwF469dl1nH1QLcGbj/eO/UkWcrYc5otP/2R3a2R0ykOrywtd9FgJsPEeDmRAS4OREBHkVxRRpCHx8fdVEPwpJf/R+CFhi17tCpIz4qVszY4g/F+8YNG5To3oCDBw5qu0lw5C9QAIuWLHbY2kDBzcYABXdI+ZhXr12DbNmzG2tvYJYQitSNqmGwe9cuY6ttwiN1YmgGYdrj5s2bmDFtOs6cPq2zo7x69cp4JTC0deTLnx/lK1TQU4aMzkfYGallrnCmRHwjtr1x6eLFEI+zMyRJmjTEiL2Ff86cRvTo0Y210BORAtwReM6e9T4L77Peen5W7Xf2LljuuWaCNhgek2hq0rYXNef1zYYGr1/ObT1GOnbujJ69vjTW/BEBbj5EgJsTEeDmRAR4FCWsApye3E/btNWRTAu0JXw9cIC2OFhg+jsKbgrvUydPGVuDhxHcEaNG6TRnwcHI3yElVmld+XXhImOrY0ycMhkVK1XSyyyDvn7demxW78PvGxJMszZlxnSd3cPVhFWAU2Rv3bJFNYoWa8uMPfHLsuIlSpbUgrtMubI6ZZwj8P2YztD7tBLZ3obQVoKbEWnadMzEb7+vRk4XpAU0gwDnrfXq1ataXFtE9lkluM+dPee0HcwCr1f+nqSqUcPsK5ySJkuqt+llYzvXmYnFbIgANx8iwM2JCHBzIgI8ihIWAU5rQ9NGjXH79m1jC5A3b1506toFz58918KAIoG2DYoGR0mRIgU++/xz1G/YQEfKgnLx4kUcPXIEx44exb69+3Rk11GYuYU2jOo1a+h8x/xuG5ToXrduXcAFEBKDhw5B7Tp19P8PL0IrwGnzYE/EiuUr7EaIaVNhqffyFSug6EcfOfQ7eN0yqwanw4cO6/3Gng8zU6t2bbRp11bnqHYFESHA6QU/dPCgMR3SjUSOYXAWnvfM050pcyZ1382s00KmSJFc/w5nz2NGp3nN37l9B3fvqukO53dxh/M7d7WtjBFtCvv4CeL7z5VwT5w4CbJmy6p7nNjwcxUiwM2HCHBzIgLcnIgAj6KEVoAz4t20YSM9YMxV8CHdoVMn7fGlr5wwun306DEttim6Kfz4gHcUiouevXtprzaXeWpS2K7/Yx3Wr1+Ha1cdK5HNFInNW7TQRWPcgTMCnEKY6esY7eY+skX6DOn1DZeR7g9z5TK22ob7iD0bWnArsW1JZ2d2OLC3gmpU1KhZM8TfGBrcIcBp32FvzqEDSnAfOhjIyx4StBB9kCZNgMjmPHNmf7EdmoGo7EVhI/uM0cvB+ZkzZ3RmmrDYiWg1SZc+HXLkyIlyFcrrHqiwDJQVAW4+RICbExHg5kQEeBQlNAL82tWrOvLtTFQ7OJiOsEHDhjq3OAU9xfaxI/6CmzYHZ+FgT/pELZlWaImg95mie8P69YEi9sFBPzTFXI1aNbW/9rMuXXFJiY/wynxijSMC/IjaP4sXLsLaNWt0Ro3gYE9CylQcoPke3nvvPSRLnhwxYsTQE33bp06exIm//9ZRzIgia7ZsOrp66+bNEH8P4XfnjapM2bJqKqNEXXrjlfDB1QKcAvfE3ydw6OABHd2mPcsReCzTpk2rBLa/yNZzHdXOEOpeGV4THLxK69Up9TtPnz6txTeFVHjD71y8ZAnVeKqoe2ZoeXEGEeDmQwS4OREBbk5EgEdRnBXgHNDHyDeFaFiIGzcuChYqpMR3Fh1xPaoE999//WUzC4oj1KlXV5fH5m9ghI2ikoMnKbo5mNLRqDn93DVq1VI3p+rwUSKwX+/eqkEQOPNJg0aNMOTHocZa+OCIAGd2C/YIHDl8RDdWOAWX1cRMMDNOYXWT8fD01N7l27du6d9ruT/Yg7770kpslylTFsVKFA/RykBBz+g9xeXunbt0w+y91KmNV53DlQKcaTx79eipffMhwdzqBQoVRIECBZE3X16kz5BBNz5CA/cHB8SeOnVK7xM9nTylbSTOwM/nQFhrj3iSpEn0dcdc4WdOnVbve9L4a8fhtctGb/cvPreZqtQWIsDNhwhwcyIC3JyIAI+iOCvAWVXvphJLr16+wqtXL7UPlIP8tm7d6tRDnHaTsKZH4+DMuvXra3FKQU/xzu9C0b1lyxaHC51kzJgR1RnprlkDfurU/XHwEGxTvyc4wiPziTWh9YDTwsDGDG0jjGJeu3YNN65fN16NGEqXKYOcH+ZEtmzZAwYRHti/HwcPHAjxHKDQy5M3D0qVLq0j3bYy1lhgI4uNEPagnFYCcO/evW+dA0wZSTtSaHB1BJw2jvXr1mH61LfTW1pgA4O2IfYOsIw/xXeihAl1PmyKVWv4frwG6BFnj82li5dw8eK/es7c6sx7zwa0M9AKxgg701kmSpwYiRMnUkIqMby8PHXUXE+3/Oe0poSmAV2iVEnkzp1b27vyqIm9M84gAtx8iAA3JyLAzYkI8CiKswKcETQOCGM0cefOnfjnxAktqlwFvaAUGXxfW1CQNG32iZqa4YMPPtDRU4plim7mtXZ0gBoHpfEGROHt6emhb0xLlywxXrUPfbaTp01F2XLljC3hQ2gFuAWmX+R+2aWOEYsbhRRZtobHIHGSxA774y1w8CxtOxTbjHDTf8zG2v69+7QFiL8npEwdFNx58+VT52IRfT5y2ZatgrYiepKPqAe7/+DQIwE3sOCgkJ8xe5ax5hzh6QHfv28/Bn7zjc5q4gg8DxMkSABPLy+8MNL2udIuQpsLBXfMmDH0wEq+f1hJqBoOFPO5cuVCbtWoouCmlSasiAA3HyLAzYkIcHMiAjyK4ogAp/BgkZzdu3biwP4DLnkYW+A5wOqKFFocLLZ3z27MnT3nLSsFPdfNW7ZE67ZttAhn4Z5VK1fq7+VolUAKxKrVq6FS5Srq/7zQafr4WY7w0/Dh2uYSNOoYXoRGgJ8/dx4bNqzX6R6D2maCwnSDzM9O722xYsW10NqhhPqO7duxZ/duh7zgtEbQRlSoSGF9w6AVgUL4oBKmzO/OSHRI5wojrBTthYtQcBfRosyW4KatwSK0OWfE2BGfeFA4PmDshPHGmnOEpwC3wPEVq9Q1uXL5Cj0QNrJB4f6+ahhnUI1oetL95xl1o9pZb7ejiAA3HyLAzYkIcHMiAjyKYkuAU9Du3bMHmzdu0lYOV1kYKPootv0Fd17d7Rw/QQItrmbNmIG5c+a+ZRlglK9l69Zo1aa1FidLFi/Gb0qcOBrRpU+1YqWKWihSsNGiwt/lCH3790OzFi1sCsLwxhEBzsuMQtuSXz24AauWAYssjkTRzWuPVhXujx1qciTvOdPY0bfN9ylYuJCuhHrw4EFtJWHDjAM5Q8qOweg6q2pScHOi4LZVJIfWFEbN9+7eg7179zicOz4oFPjsLeHgPn5uaCt5EmcFOPcFU0Hevn1HW7cCLBu3b+n5vbv3dI/AUx8fncmGYw64HJYMI2anU5cuWpSXLF3KZYJcBLj5EAFuTkSAmxMR4FEUawHOSBVtA/SlhhVGrOlbpR2B0W2KbkZMraHomDJpMubOnv1WTunEiRPraPfHdepof/n8ufMcGrBGmA2jbNmySJIsqS7Jvf3P7Tp/siO07/Ap2rZrpwWWNddVI2TY0B/x++rVmDx1qs6hHZ7YE+AUZ2wcWQaXBufppWBmdhCKbjZA2JDgRf7zqNHanhKcHYSRTObP5v+j6OYgwIeqoXRAiW2myOPcEcsHvcr5jQh34aJFtP3AlgimdYhRc/aA7N2zVw/IDY0Q5fem0Kbg5sTIq6twRoBnTu+6z31XYa5/iuWw9iqJADcfIsDNiQhwcyICPArCrvyv+vV3WNjagxUrOUAse3Y15cihJ/qz7T1YeXosX7YMI4cN15FAayhs2rVvrwfecXDals2bjVeChyKfJesZTb18+ZJTvucSJUuoh/ZnSrgVNLb4w0Gl06dN098jKO4ehJkuXTr8tmIFVq9cZbe8Pvc37RyVKldChUqVAvlrGVGeMG6cttzYK0XPyCQ90pzyKxHLlJB7du3SxY7o+w96rGxBmw/FeiEl3AsWKqwaYVm1XzkotKYwAk/BvWf3Hm0psfe9QoIDevmdy1Uojw8/zKUtMA0aNXK5XUgEuOsZNeZn1KxVy1gLHSLAzYcIcHMiAtyciACPgjgrEhi5ZN5hi8i2CG4OrnIUCrlB3/+gI5zWULi179BBD/778osextbgYXYN5rb28vTSad3+On7c4QGhbCA0a9FcZ1GxfjAw6kpf+efdPgs2Q8eps9462hoUnt+0zYQVawH+Xur37A6IpLWEXm6KbmbLCBq5Z5R7hWrsTBg/4a0sNeylYCVMi+iOETOGHrTJ9I17du12qMgSC/xQaBdUjRfaUoL2cljgA5nHh9F7Cm7+trCMJUijGhfly5fXgz15zA8fPoRFCxYarwLzFvyif5srcVSAszcnr2oICCHD82Xdpo02bUiOIgLcfIgANyciwM2JCPAoSL/efexm/mBeXxbIyZIlS4DgzpgpoxZ8oYFp0X4a+qOu2GgNRWCTT5oqcfOPEr47ja32YZSTvl6/137aBuFM6kM2ICoqoco0dEHFGS0mtMLYinYHpVv3z3Q5e+sIK207XTt11sthiY7Tp85iQd9/+52uAmoLWklogalSpSpKlSmtUzAGxdvbG7/Mnaej5kHtPbTo9OnbVwtmndFGCe7dSnCHlIGDDQ4KXovYZo+BPR8vGzI8phTbFN30iQf9Hs7AKDqtJfx8/n5G4w/s248rV64YfxEY/saNWxzrPXEURwU4xceihQuxfdufuHDhgi5o4wp47SVLnkyXdGdD1ZJ/O2nSZHquc3EnM3JyJ0kSIGpp72FvF1M/MtuKI4NjwxuesxRkCdXUp19fFCte3HjFeUSAmw8R4OZEBLg5EQEeBWHU+OMaNY01fw/48JEj9NxVlR758J86eTKmTZka6oc+B4dSfDCaS6sCU9A5A1MONmraBPXr138rxzAzf4wdPRpHlSgJjiZNm6Lb592RPMj/v3rlKsqULGms+cNiLx07+4txR2EVyl/m/4I1q1fbzO5Bsc/9wJL4latUsXl8mIN56+YtmD9vnh7AGBT6sVlgKGXKVDrKTyEW3L6k4OYgyWLFi+kbAu0twRW+oZWJgptZVPj5jlqA7MFjTlsRH9wU3ew1caYkvqttQs5YUHgL5HiBUcNH2G0kENq30qvGQsJECZE4UWItrJMkSarnHAeRWAnpJMacDU9HYM8NG1Y8BmykhHRuuwI2kFL9L5W+1lKrKUWKlPq4JWLe8IT+c4rtxGriPCwR76CIADcfIsDNiQhwcyICPIribB5wZ2CawOE//uSQlcEWjHbeu3cvVFlYKAjKli+no90lS5UKFK3m6cko87ffDAg23R6jiCN/Hq0HMQb1E7NhUVvdwC6ctx3ddET8UTCzR2CBEt72CrEwbzIHotb6uLYuhhKUixcvajFN4c1Ic3CNHFqFQqqUyWuSFSYZkeT5EFxDjANA+dn02+9Rn+1sNUVbMEtK8hQpEFcJfa9o0fTgWWe84anUPhoxaqT+7q7GUQHOBtRnXbrqvPTWUIAwh33FSpXwYS7XWVRYgGjp4iX4ddGigJu4q2FjjOcfxXXq1Kn13CK2OacVLCwZZsKCCHDzIQLcnIgANyciwKMo4SHAKSZ/+O57XZUwNDDy6Whu76CwVHmDRo3QsHEjvWwNHwq/r1qNPr16BZtho0WrlujcpctbfmpCMfhljx5Y+/saY0tgmEWld9++xpptWK1y4S8LsGzpUrtRYmYNqd+gAXLlya3XmbKOAvfu3Tu6siF7L2jxCKmSZEikTJkSHxUvhuLFS2jhTS++PZgukt5t+sMpvF2dp5rRdTZ0QmNVYXSeWXOY5zu8cESA3717F+3btNV+d2t4LnKgLyPB0byiwdPLU4vaoBPFO48pJ6bktCw/fmS1rKarV67o4+EqGJGmwGaZfmthnfp9JbbVtpTq+/P7mRER4OZDBLg5EQFuTkSAR1FcKcAZiWPEm7m6XQkf/Oy2Zk5lW1C0McrNaHeZcmXfEgqMCi9fugwDvv7a2GKbfl9/hcZNmti0WdCqMX7sWDWNM7YEhoM6eU7byxnOB9KmjRt1tJsWjYiC+4q2DuZGL122bLDXIO0eFNyHD6pJzYPLM04YAeW+C6v1xFHodWZxpPoNGuqiL+FNSAL88uXLaN2iZbhFocMLWlt43GjxCm3D1xWw9+P4P7Yr4AaHCHDzIQLcnIgANyeuFOBv5xwT3mnY3lr8668onL+Ay8Q3xVXdevXQuGkTnUPclvimPaJ127bYsv1PXV6cAxOtxTejiTOnT8eH2bIHK76H/PQjTpw+hTbqvYKKb0bKf124CNkyZbYrvjdt3aK/gz3xbeGDNGn0TY+/iTm2XemDDQ72KDBjzOChQ7Bn/z4sWrIYbdu3DyS+ua+YbnDypEn4tG07FMqXH1UqVET/Pn31QF174psWGQr6bNmz6UGB4S2+KfIrVKyIydOmYsee3bq3wR3iOyTYI9Ggbr1IJ74JrVC0ekWk+Ca0dQmCIAihRyLgkYiwRsCZy7lB3brGmm2YXzqk6Ckjs3ny5EEpJRSZds/niQ+WKjF/8uRJ4y/ewNdbtmqlrSbMAR0UnmNs6Y8bM8bY8jaMxnw/eJAe0GgrTzWtJmvXrAk2JeLcX+brFIC2YOaLwT8M0oWIPu9h+z0oeM6cPo0Tf5/A5UuXcO3aNT3dvHEDN27ehK/hfY4dJzaSJ08RkPWCXu5/ldDjoESKJ1uwcVKmbFntN2amFGsvNy9P2kc4CJM2Ic7PnD7jUOEb2hIouNnY4H7m/w2tx98ZOB6gVu1a2g9vyxrkDoKLgNMexGN2XwlZ9gTdv6em+2pZzSlu6b1/9eolXr/2g9/r1/BVE+ev1T5/7eur5mpZvcYoMI8VxSgLH9FmEpbsMZGN0AyclQi4+ZAIuDmRCLg5EQtKFCUsApw+6O7dbD/sKCJqK7FELzaj1+yaDwpvyLSOsHALU+4xW8PB/QfsDhRkcZ42bduhctUqNv2oFD7MuBJcKsGMGTPi64EDUCJI5hILfI9FCxZg1IiRxpa3Gfj9d2jWvLmx9gYKWFaY/Kpvv0CDO096n3F6gJqtSpiMsi5euAir1DELWrKfMHpfTQnEqtWr6TSLjHwTCkCL0GaD6fjx4zb/f1AYoc+RM4cS3AXVlF83AJgnfOWK34LN7OEKmEawmGrcFC32kf4tzAjiSmgpemoIWw725PnEY2TrvLLgTBYUR+B3YMOUXn5OZ73P6oYY921EpwmMCHgvmDlntrHmOCLAzYcIcHMiAtyciACPooRFgDNKlztHTmPNHwqnTp07axHIaB4FbfXKVQKqKLLwBgfKMZ+3j89T/LZ8uc6hbU9wMDLOKG7b9u105NUWFJgzpk1T4nuKseVtChcpjF59+iJvvrzGlsDQ7zx75sxAxVyCwlSEXw345i2rCRsPS5Ys0f53PniCwkwqtWrXNtYcw1qA07Jy/Ogx/KNEmi3YMGnYqBGq16ypRTPF3DH19xbRfUmJOkegqOR75c9fQAtupiC0ZGpZsWy5fr/wwjIYtFix4lp028r4Yg/uc+Zxv3L5svZh37xxUw9UZCODvubHjx/5D158ZFl/HKzdwV4UNiwCnBafUydP6mPoL7hP6t6PsAhtppVko4jZevQ8aRKdwtCyTMHDa5ANs9ix1RQntl7nPmAvC/fV5UuXjf12SS8zs42d23e4EpbxJyLAzYcIcHMiAtyciACPooTVgtL7yy+1OGNatWEjRyBz5szGK/70+bKXFh+ly5bRPmQKn+VLl2KFEt7BVXek+CtStIiuVGmvuqIjwpsWk8979rB7ru34cztmKeG9Y/t2Y8vbUPgzCh00QwhF3/SpU3V59+BYvGypztLhDPXr1NXiOThYibSw2kfcX/9e+FfbUngRO+Ll5f/JkSOHLuGfRzVKOKe9hPDh+efWbfoYbd2yJVy8wbTRMLLtL7qLIX2G4H3czC7C30bReOXylQCxzTmPgyP2GUdxhQBno0cXvtm7D0eU+ODxcUbYsuHJzCNp0nygjouaPvgAH6hlDvZlhhKKbksPhzX8DDZ6bykhrQU2J4vINkF0nXn0eS1wYiOPYyFCGjsREiLAzYcIcHMiAtyciACPooRVgFse5rYeohRFnNi1TzE5YthwnavaFkzTRssKS6IzChvcQ5lijMKbxX3sQetLl65ddVq1oPA7/7Z8hY54B5dKj9H84SNHvhU1p7iaMmlSwEPfHqEph85oei/VqNm8cZOxxTVQuHEwK4U2fw8rmwYVcPSUU3QzVSMbN66Eqez42RRerKLJxoMt773FlsFosSVifEoJ3+DytbuasAhwnuM8NxyF5zkrzmbPkV3vk7Tp0qtj9b4+b3l8LFYZH9WIfaYmNmZ5/jNSffvWLSW01cT5rZtquo07t287lTc9vKCVh40q/qZsauI8a/Zswaa5DC0iwM2HCHBzIgLcnIgAj6KEVYCHBIXC8J9+0r7hoFBgVKhUEfXrN0DxkiVsCjJrKDymTZmixPd0Y8vb0Cvdt39/nb84KBQq8+fO0x5vRgntkSRpUvRVD3VWnWQk0gLF+uQJE7Hyt7d/izUcdFmzdi1tBbBVJj44WBHz45q1jLXQQf99rty5A8Q2hTe/iy04gJLHhiXrQypF7ygUlewRyZffX3BzClpBlNDeQtFvsWRwwC2raYYmQstzKX6CBKEqBsTIP/Ot58qVWzcO8qn9ZgtHBHjnDh2xccMGYy1k2DCKo84R7jNPda49UWLbIrQ5+DI8eh94TvN8oFBnj1RYP4O9GRTZzIRjEdvMjhNcI9qViAA3HyLAzYkIcHMiAjyKEl4CnCKKUerJEye95belOKvXoD5q1qqlH94hQVE1dcpUnVLQHgULFdKDK3PmDOxJZwSR9pJlS5Zi86ZNwUYHKeKY1rBTl86BhDMHP04aP0F71Z2lQMGCupJmCdXAoK0muEF+hD0GWTOGfF1QRL333ns6Sp8uXTqkTa+mtGl1WfO0aj24xgzF3YZ163W0mznJ7VyuDsPotkVoU3RThNlKscjo7KFDh3DowEE9/0ftVz6oHYVVLhkdph2Dtox48ePhxrXr2oLCm9epU6dC/C3MmsNzhfYHNlDYUHG0keSIAB/0/feYM8v5gYSuhmKHUXTat3he+zz1wVMfCnsf7YWnNcXZSDkFNQcxU1xnzpIZWbP5C25n/PrhgQhw8yEC3JyIADcnIsCjKOEhwP9YsxY/DR2Kq1evGlv8oeD56ptvdFTWEWj1mDNrFn6ZN18LaVvYy2rCQZXLlizR0V1GvkOCAz1ZiIcRSQtHDh/GhHHj3yopHhposen/zdcOVWpkZhnrSpta1GbLrsS2EtlKXFN083tSWDkDy7rPmzsXq1eu0iI8tFDUlSxdGsWKF7Mb3eYtQBfyOXgQB9V06OAhXLp40Xg1eCy2DIq7HDn8LQwUe2y87Nu7V2di2bVzl0MRe/ZmFFY3M97QOGXNljXEnhZ7OCLADx44gIHfDECKFMnVve4xrqlrwB32GQ60jBU7tt1iVc7CY8CeE9rB2HBkGkj2FIR234UnIsDNhwhwcyIC3JyIAI+iuFKAM2fxF927Y+f2HcYWfyg+e/XtoyPejNyGBAvC0J/NypH2YD7sPv37ofbHHwe8J7NbrFn9uxbeTGnoCJmzZMHXA75RYrK4sQU6KkzhTbEXVhjh79i5M5q3bOFUl7ytNIShgQ/Cjes3KOE9Bwf2HzC2Og+z1jBNHCdG2oPCHg+WX6fQ1tUz1eRIqXSmF2SPiPZA58ihxTaj+BTb7A04fuy4Ibh3qAbRkRAj5jzX2CiwRGm5/9kAo6f9k2bNwmSLcESA24K/g3Yb7iPOX6q5ZZlzivZ1f6zDubNn9XpkgoKcPQhx48VDXNUI4JwWqAQJEiBBwgRadNEalDBBQkSPEV2X4feK5hUw53HmGBH+H/YWhQYR4OZDBLg5EQFuTkSAR1FcJcC9vb3Rsf2ngaKcFDvtO3yKTzt21OnPgoPd4RTPzEhCa4I9+D7dv/gczVr4C1qeart37dIWkw3r1zssYCjMPu/xBZp88kmALYQZPyaOn+CSdHss7/1J82Z6ICgFiLOEVYDT7jFt6rRgbTvBwYZJufL+opt2jaCWEu7nQwcPqn2/G/v37dPedUe8xIzeF1RCK3/BAnoeNPsJez127aDg3qkbQpb7hSvYtG2rzcaDo4RWgIdE5vQRX8nTDISmCA8RAW4+RICbExHg5sSVAtx8fZRCuLJl82Y0qFM3kPim1WLD5k36gRic+Ka/e+L48ShdvAR69expV3wzyt3u0/bYuXePLqPOwZ0/jxqF0iVKolXzFroh4Yj4ptimeKcY45zvS8tMrWrVdQl2R8Q3u+MrVa6so61BYTSPkVaWpqe437ZtG34cMgTdOnfRpcpLFiuOIT8MMv7a9fyxdq0WdB8VLuK0+KY/mt995ZrfsXb9OnzZu5dqlBXR4psNHYpspnxs2ay5bkxzzowftOrYEt/8f7QdMYf7xCmTsffgAWzcshlDh/2EBg0bavHNokvr/vgD33z1FcqVKo3ypctgwNdfa7+9K8U3YVVKM5ImDI2CdwkOcr6o7iGuPu6CIAhRBRHgUYjJEyfqyLelXDYF7jcDB2LshPE2UwASptpbumQJWisBXKxIUYweOSqgUE9QKJDr1KuLP3fuQLfu3XWGiaaNGmmhRpvI9WuBc4nTmsICJbbgQMjVa9dg4Hff6i5v5i+vWrESPuva1WbJe2s4AJAe8dnz5movNqPtQUuws+Q+s59wgBuLD1UoU1b3LjBrC0Umxf2N69dx+vRp43+4Hg58dZZChQvpdIu79+/Dtz98r/ODE+aM/nXhIr1/ihQoqLOzMKMNexxsNXZoO2D5+569vtSt+CN/HceS5ct0Vhp67C2ZN/bv268rjdb7uA4K5y+gGycsgMT9Fp68ePHcWDIXefLkMZbehj5/7lfaPCw9Ne8qvBZ5zbBxJwiCIDiPWFAiEaG1oNC/2rdXb10l0QJtHbRLfFSsmLHlDfz7LZs268/b/uefDtkVaH/o1acPnjx5rC0mjO7aGjxIkUKBxxzD27ZtxYXzF4xX/KEwpnimOKRwXL50mS5Z70g5ddowmFYwabKkGDdmDJb8utjugFBHYWGfX5cuMdZsE1oLCqOIFDIhQQtFXdWwsUSiCaPRFNd62rkrxAqaPN481iymU6hQIe27tuXxpz3JYithqf7wgkVdsmbNiixZsyCjurekTJkKyZMn0wMxXTF4MLwsKI7CMQ7fDRgYYhrMdwFn7ChiQTEfYkExJ2JBMSfiAY+ihEaAM61g6xYttQfYAsXXlOnTAlWtZESTJdRpUeGASkczb1BI0T994/oNXarenhBkdgamM2Te4fFjx2lhbw0F4meff46mzT7RkdeFCxZgxtRpDmVF4UOc3nX+v6mTJmPO7Nm6EeEMjFgy0k5ha82gIUPQqEljY802YfGA88FHAeqrvjszkVjD79OpSxe0atNa20r4GVocK9FNi4mdS1fDho4lrWLxEsW1FceWsGWpc4p4pjp0tVjkYNky5coib9682k/OQZzuwt0CnI1U2nuY8WWP2p/Hjx/XAzodgeceB7Qyc0nCRAm1+EmQIKG+JvSktnEeNAWjr2pc+qjjxx4tPT3xwRMfta7mXGeO8oePHmo7Dwe2MusKc+pbesBchQjwyI0IcHMiAtyciACPojgrwCkKOrRvHyjTCTNkDPz2W5w7e05nHzl+7JgWC86mRGOkknm8GaXmwD5b0GJSu87HSng30MtjRv+sC+tYR6W1D1sJeFpWKBDnz52LWTNmBlt8x8KM2bN0NU6KbeZzZqTcUU8qRc9HxT7SKfoyq4cP848vmD8/kF2D3viRP4+2mSfbmrAIcA5e5DG1Tn/HyHSDRg1RpUpVnS+b0Whm3wjON8//w8wkFNsU3cyfbS+LCKtWzpg+XVcYdQWly5RBrY9r64wmzDMemgg2fxt/g7PpGu3hLgHO62fp4iVYvXo1njx+bGy1De0pFNm0e7H4FMvUMz88xTV/P6dXL1/p/eDp5anPUcvk6ck5t0Uz5tzmqa8fy2ssEsSy90xz6Cos16rlMWE9ZwOD39WZbDUiwM2HCHBzIgLcnIgAj6I4I8D5cKTfm9lCrGHUOyS7giNQlNoqDkJBQCsIo90Uxzy95s+bh/Fjxr4ljsuWK6c9x4mTJFY3m5m6XL2t97SGnvFVa37XubX54KDdhXYTDvQMCYo75iCvXKUKylesoH8DC9xMHDf+rUg7Gw7dPvtM+8lDEhihEeA8PuPHjtW9AUEvQQ70e/TwYYipASnmilFwFy+hrSX2Isy0lbA4Ec+fsMAoNlNJ1qxVU+c4Dwp/B8cHXLt6Tfv9r127qiYuX9eRdvbGvFCNJf6No/m2LdFV7i++z/Hjx3RvDgsacWCuPcJbgLO3okqFisaaueD5ygYyxTi9/EmSJlHL/utc5jaeOzyGzohnVyAC3HyIADcnIsDNiQjwKIozArx/335Y8qv/g84RGE1jOjtG5v46dtzuQEt7cDBg3fr19cBGPugJq1n+OGQo/r0Q2OfNz+n/9Ve6gMv0qdMwa8YM4xX70Is9fdZMnf2Dp+zvq1fj51GjQywYw6wu9JNTdJcuW0bbOugnnzdnrt4/9OpaQ2FCoX7+vL/wq1uvnh7sGFx2GGcFOC0AXTt3fisHe0gwUkofN60dFN620vQxYsmS8bx5cx+FFnrxm7VorvZZ2QCrEiO03Hf+AttfXOtJrbOIDQe6htSAchY24thgvKo+1/q9mbGFg0btEd4CnL+XWX0iO7weaCNLn8G/Smu6dOmRJVvWQEWuXIkIcPMhAtyciAA3JyLAoyiOCnBWtqSwDY7/vfee9ubSm80KehTDzG4xacIEhz2ijLLVrl1bCe962sNqgVUchwwarL3F1lCYd+/xBYorATlz+gws+OUX4xX7NG7aRGdqsVgTKOqZiYWfERz8fS1btUTDRo10bm8+ZPh9+Bv5Ho76cy0wVzjTGdKSEhRnBHjQh11w8Dez4VG8ZAm9zyiUbNk7GOGmhWao2uehgcKexYeqqZs8q5VS6DLC633mjJq8cfast55fVkLYzu0iQlivjiOtF6/UPqWHnvvW1/e1+j0JcO/efTRu0ED/nasFeM/Pv8CqlSuNNSE4gvrDRYCbDxHg5kQEuDkRAR5FcUSAL1m8GDOnTUdCdQPVA7oSJkLceHG1BztR4sRImTKlFt3WJck3bdiIoUOGOFR+nBYTRpTr1a+vI8rW/ui7d+8qcTxSZx+xFrj8G+aspkd59epVDkV+mQmlVevWAYKTlS5HDBseYu5vNipat22LylWraH8qK0quWb1apxZ0xFceHLSljBg1ylh7g7MR8Hat29gsmc99myt3bu1NZ6SbnmpbFgFGX3fv3q3tN/SGOwujxx07d9L76uatW6YX2mGF3uj1mzbazAUfGpiOMaznUlRBBLj5EQFuTkSAmxMR4FEUZywojkDhNfiHQXqQX0gwewktJhxsZ7GYWOBgT94sGD2n19caZt9gufKdO3a8lWHEFuMnTdR2EQssmT5y+IhgvyNFOgU3hXc+JS6PHT2qK3WuXbPGIW+4owweOgQNG7+dEcVZAc6IdbVKlfUyS7sX/aioFtwcOGlrAB0zWOzbs1dnjmFOdmdh7vCKlSvrLBqXL11Wn+8vuN81oR0c3K+/LFqo93dYYZ51HhMhZESAmx8R4OZEBLg5EQEeRXGVAKcQpn+aGUeCg0K7lraY1Ef2HG8sJtawCuKwoT/aHNhJ24Yj6QBpZZk1d05AURlCkTpKCW+mRLQHB2TSYtKiZUudf/x3iu7ff3fJINMRo0ehsLqwOAiTjYorl6+o5VQ2BzqGZhDmkSNHtN2DmTGCQgvQgf37sWf3nlCXp6d9hV77W6oB4qyf31XwO/BBzvMtuAwuoYXvz94V9hxEU/PozAji5YkH9x/YTKNJK8qKlb9pe1JYYLrGeXPmwIP/VOOPPS1vJnVT9Qi8jQ1ENgqDNk5dCT/D8lnWn22ZaCtyhT/fng3KFjly5tBpPK0RAW4+RICbExHg5kQEeBQlrAKcA/SYbYQDI+1BMUNrSX0lKoNaTKw5ceIEhqibAyslhpZqNarjO/Ue1jd7DvIb/P0PwQpvDhBr2bo1ChUpjK2bt+jBhmeVYHcFFAVdunXVosVRQiXADx/W1xetQbFjx8GunTt0+sXwrjAZHnxct462F92+dUvbkB4+8M/gQkuTo9lOrOE5mCJlCqRK9T+kTJUSqVKm0o2tePHj6UGD8ePF17YqinrmvH78+JEeAKoHh16/rib/gaG2mDl7NkqWLmWsCfZgFhteg3PnzA00iLp3375o3+FTY815RICbDxHg5kQEuDkRAR5FCYsApze8f5++xtrbMCUZi+AwzRzTlNmD0dSRw4Zj2dKlxhbnGfDtQHzSvHmgSBrf98sverw1cNMaWjRKKfHEvMf0dDPbR2hg5NRWdU9WvOSgR2cJjQDPnN6/omVko1yF8ihXrjxe+b7S+cSPHjka4oBYR6HfnT0OzHTz1Me/mAyjxoxm27lNOc3iZUu1t15wDEbNO3foGFAVtbBq9P6yaJFeDg0iwM2HCHBzIgLcnLhSgDtfMUOIdHw7YKBd8c0S8ixos3HLZrRp29au+Ga0ceL48ahQpmyoxfeS5cu1J7R5y5YB4puD2apXqYpihYvYFd+MenJwIvNKjxoxEiOGDXNafNP/zIj7mHHjMHnqVGPrG2bOmRMq8e0MvGg5kLRIwULGlsjHlk2b8XX//rrM+q8LF7lMfBOeY9xHPLZMA0n/PkV4WMU3I+pVq1dDm3btAlV/FUKGPWDM/LNp6xZs37UTEyZPNl4RBEEQwoII8ChA9y/8o+bWMIvJpm1blfCcrXMth2S5YIR34YKFDpeot8BMG/sPH9LCO2++vMZW/6hL0UKFdUaJM6dPG1ttwygoB2PasxXYgx72Bg0bYuqM6dh36KAW31WqVUWbVq2Mv/Bn4PffqYZI+Od0Zst5yqRJTlcdZYpIlpUvUbKEjoR82rGDzk0+beYMrF2/TmeLiQqw0cboOKPk7JHjucWqnxy0yzSKtEeMHjsGi5YsxoxZs4z/BZ0RaKxqPPb7qr/2gQvOwXEK7CGjd14io4IgCK5BLCiRiLBYUKpWqqx90i1bt0LPXr2CLSxjD1YynDxxIiaOn2BssU+Hjh3Rs3evYIW9PRvGsBEjUL1mDeTMms3Y4jiMcJYpVxaVKldBwUIFdcnuoFh3g9NSMWVa8DnTQ8JRC0pwthN6nMur78JKnUWKFHFqoOCG9evRpWMnYy1iYJSZhYE4GFIPiozmpaboev8zisp5tOhquxcHTEZDdPUat8eJG0f3cMSNq6Z4cfVyPLVMvzd7LfRr3KYmZ85Zd5WiF5xDLCjmQywo5kQsKOZEPOBRlLAIcHo57Q2odBaeFzw/bDF/4UL13YoYa8Ez5IdBmDVzprH29slco2o1uxYHZlhhZDhb9mw6RSILAWXNlk1HSB2BEfXPu32GzX++nY/bWRwV4C2bNQ+w2dCHTksEUwQydSKLBYUWDtwsV6q0sfYGPkSZBpL2nSRJEiNOnLg6j3poLETMHc7v+WHuXMiVK5cuS+/MQFV3IwLcnIgANx8iwM2JCHBzIgI8iuKqNISuwDqay6wIX/Ts6bTAZ1aWOjVrYdykiTbLqu/dswcrli1XAjKXthHQn05bCQUVlx1NhxbeOCrA+XttReTdBb9j6xYtg7URsWHAlJMf5sqN3Eq4c99nVNe+Wfa1o4gANyciwM2HCHBzIgLcnMggTCHCWbdpI3bs2a293fTehia6TjG6au0am+KbFP3oI/w0YjiatWiBmrVqoVjx4jrSzSqekU0QkogU38xD3bZV67fEd4YMGVC/QQOdr/m331fj6N9/YemKFfj2++9Qt349nUs8Mu5rQRAEQTAz8mQVQgWLyLiqtLcQvjBnOyPftCHR8tKhUydMmT5ND45dv3kThg77CY2aNEbOnDldZlMSBEEQBME+di0onzRugmdGtCxR4sQRGr0T/GGatiePH+sBalxOkCCh8YoQkbDSY+zYsfD40WPt5aaNwyz4+fnh1q1buhQ7BzJGlWi272tfPLz/AEmSJtGVMRMnSWK8IkQkzGj0Wh0b31e++pyMrSYh4rl75w6SJkuq5neRWF0znh4Sm4toWEXaR10vMWPF0qlYHR3fJIQvDx7cx2vf13r564EDkb9A6OtKOOQBF8xFhowZcP7ceWNNMAOZMmfCWe+zxppgFvLnz4/Dhw8ba4IZoPB2Np2pEP4ULlwY+/fLWAmzwWrJoakoLIQ/4gEXBEEQBEEQhEiE3Qj4yt9+s1muW4h4YkSPgZev5NiYCXvl7YWIhekq2ZUrmAfaoGiNEsxF7Fix8ez5M2NNMAusnUBLnWA+ypYti2TJkxtrzmNXgAuCIAiCIAiC4HrEgiIIgiAIgiAIbkQEuCAIgiAIgiC4ERHggiAIgiAIguBGRIALgiAIgiAIghsRAS4IgiAIgiAIbkQEuCAIgiAIgiC4ERHggiAIgiAIguBGRIALgiAIgiAIghsRAS4IgiAIgiAIbkQEuCAIgiAIgiC4ERHggiAIgiAIguBGRIALgiAIgiAIghsRAS4IgiAIgiAIbsTjP4Wx/I7wAne8j+Pk+eu49zIOUryfCdlzp0MiL+NlIQLxxdOHT/DCj6ecBzxixEGiuDH8XxLcju+jSzh54hyu3X6AV7H/h3SZMyFjmmSILc3yiMPvBR7euIyLly7hys2niJniA6TLkBFpU8ZDNONPhIjF9+lDPHnhB+sHp0f0uEgUT+5lbkNdJ08ePcWrENSLh2dMxEsYR66dCMUPLx5ex+WLV3Ht5j089U2CHOULI41cLu+SAPfFzZ1TMPjHOdh84g5eGlsp9GKnLoianb5Cnya5kUDEhfvxe4gzG+ZjxvRfsObQDdVE8idutbHYM6EGYhvrght4fQfHV83DnAW/YevRy3jsa2w38IqfDkU+/hQ9ejZEnoRysbiHZ7i673csXvArftt0DNeevja2W4iGxDmqosVnXdGqcmbEM7YKEcCjHRhYuy0W/Bv4wolVaRT2T/lY7mVu4rX3eNSvNgp/B7l/BcUzVRPM2DYYJWIaGwS38eLGfvw2ZyHWbtuNw6dv47lFacYoiR92z0HjpMZ6FOYdecL64sKv3VC/9Uj8EUh8k//w7OoBLP66KT4ZvB33/YzNQvjz4ir2LxiCDpVLo1ankVhuJb6FCOD1ZSzpXBONeozDqoNvi2/y+vG/2D2vP5o3/A5bbsvF4hZeHMG0nv0wcdVhG+Kb+OL+P6sxplM9NB+2F4+MrYK7eYqDEwZjSRDxLbgf36tXIbcnk/L6Jnb+3A5VyzXB15NXYvcpK/EtBOKdEOAv/5qInt+txw3r+2KM+EgYx/rnPcWp2b3x7ZrbkOvWHbzE/p+aocVX07Hl7CPYkhWCm/FKiYxp4wbqOrfHszO/YMDQDdJgdQcx86JE0STwMFY1HoHW/PnvCf6e/j2mHxMBGBG8+Gsahsw9g1fGuhBxPLl2Te5NZuTFaczvWAftx2zB5Wc2njQeXogeMya8pHNVE/l3g99NrBo3C38/M9bVYyxR0R5YtPsQ9u/fgJH10r3xf/ndwobxs3A8cIhcCBdiIEuOTAjo+fOMh5Qp4wcWGYKbiYHc9Woje/RoSJK7Lr4Y9QvW7DyEg/s3YcnEHqiYzrqf1g831/2KDXflKRf+xEGhkiWQqWAddBs6BfPX7MChUydxZNdyjGpbAAmtL5pXZ7Hjz/PSoHU3vt6YP3gG/nrOlWhIlysH4svNLILwxbWrNwMCaR5Ji6JFn37o0+/tqXfXqkgvBnD3oLTYhgGdMXTTDXWELERDsrx10HnASExbvhUHTnnjn+NT0SCx8XIUJ9J7wP2uzEHLCt9hr8XbEC0buvy2Cp/n9L/q/G4vQ+fyvbH5sfEzvdKgxS8b8E0RGQEQ3tCn16DmLPiWa4o2HVvgw10dUHPY0YCLUzzgEYBqhB7ZcR1pSuRB0iADk58dHII6jafjnEXdeaZCo5lbMai0GCgjDN9jGFG9AaacsVw1XsjYYQlW9c2rmlOCe3iNS7+0Q91v/sRD9RjxSFwJP/SIjp++WYPHxl+IB9ydvMD6z4ui28qHujcveuH+2LCwHd6XqGqE8nBjb9TouBQ3LC2jWJlR7/vR6FcvB2Q4kW0i/W65v2s7jloZi6NlKIfyWd80eT2TlkLpfNGNNcXra9i387RVC00IL7wyNsLo9Vvx28Se+Dh3EiUdhAjHMwXylX5bfJPYufIhR1yrsN5/z/BcR/yECOPpXdx7YtUL4ZEQ2XNlEPHtRvxurMKwn7dr8a3kHrI27YQqcV8FGWskuA2/O7h246lhpfNAvNRpkFwEXsTi+w/mjF31Rnx7Jke5AZPwfQMlvlWD6dEDH9FcNojkp+1LnD11LpAnL1bmbMho3eXkmRCZMv7PSvz54vKZswhwrAjhh7oI06ZN8K6M9H3n8XtwB3etR8sosZ4qpfSzu5OXPg/x4P5d3L7ijUN/zMBXLb/EsmtvBHjcPK3QrmICY00Id/zuYvOIkdh4x/+68ExeGR1b5YLHy5cOjaUQwgHfq0qAW66J/+Cz7QfUKFcRtep+gk+79sKg8cux/8pT43XBHbw4uBgrT75pksbI3RhNEq5AjzrlUSx3LhTIlwf5CpTFx21/wIp/ZBi5hUiujXxx/epNKz+kF5KkSBEk56cXkiZPHMh7/PLWNdwSE6UgWPESp39djsNWYT3PVIXxUXaJtbqPF9g+oDwK5y+EYiUro3HnwVh89IG/19UjNj4o0x0Tp3ZGTjkkbuPxrjEYtvKacQzio1i3nqiSzBPvXPmMyMSra7h6+80D/OX9q/j3wjmcPLIHW9csw5yRX+KTilXRfuwu3HnTdhXCDV+c2bEX16w11fm5+KzrBKw/egG3fRj79sPzexdxYsss9K5bE13mn5KMaIrILcD9fPDEx/oK80CsOLGD/CgPxI4VK/Dgv6dP4SP3T0EIwPfMHAyadhxvHCcx8WGjpigi9m8TEA0pS7TBlz2aoqD0tbuPpwcxafBiWLIOxs77Kfo0SitWugjm9Y2ruBmS/+f5ZWwb3R5thu/HE2OTEF48wamTFwNZTF4+eggmQfGMEQ9xYwTpRX1xGRt++BKTrL3DUZSocTcPKra9vOQmKggGfre34cfPf8b+J28ulFjZW6Fvm+xBepOE8MYjWnTEiBEd0QI9s3xxc8cEdP+4KpoN3ogrYqZ0Ay9wYtpgzDttKL3oWdCsfxtkk96HCMcjXmG0HDQcoyZMweQpY/HToG/Qs1MDFM+QIMj96jlOzvwR872luztc8b2JG1Y9Epro76PSV4vw5/HjOHp8LxYNqIIPrK+dlyexcM42+BirUZXILcA94yJeXOuf8B+eP30WkJ7In//w9PmzwBo8tvp/Ym0VBODRQYzv1B1zT74ZFeGRrAz6jv0CheIaGwQ3ERPlf9qDv0+fxomTR7Bt5WT0bZALCSz3Kr97ODLjS/SZ7R0o2iS4Ht+z8zBkxpseoWipP4DfzikY+/PPepq29VKgVJC+FzZhsto+ftF+SObO8MUzZSHUalQPNatVRPlKNVD3k9bo2PsnzN64FbM75wmcHvLl39i86aKxIoQPL/AqUHJ8T7xX9zv82K4wUrEHNWZyFGg9FH1rpLQSnP/hwSF1r4viI5kjeQQ8Gt57P5VVNPs17t26HeTh5Is7t+4FEuWx//c+kkkIXIji+N3ZjdFtP8X4Q48DGqge8fPg0zHD0SSThPoiEs+YCZE6dyW0/XE2RjdJ9+Ye999jHJg6DX/KGLNwxefgLhy1pK5V+P67GTPGjMU4Y5qy4UJgAe69FhPV9gmLDuB+0B5XwT14JkaR7l+jYXrrh7sfrl++YiwL4YJHQsQLFKzxQprsORA4fpMQRYrmhFU+Ovjdu42ggfOoRiQX4DGQOVvGQCm5np89iXPWCtzvAby93yTtp2hPmzULYhlrghAV8b2yHt+16IBJBx8EiG/PJEXw2YxZ6FEsaWS/Mbw7UFSUzhsoqvfffW+cuS7d6oLwFl5JkSRR4O5tTw+5m4UrXsmRLo11kT0/3Lx69a1eOg8Pj0Bj8TxixUbsKH5oIv3PT1i8JPJYDRTzPbcFm6zS4fjd2oKt1qUvo2VA8VLpxQMuRFmenVmML5t1x4KTPgHiO2a66vh23nR0LZRIxLfb8cWLF/ZMJU/xz5FTsLLnqydXbMSJHVhkCK4l2v9yo1SZMihtZyqRPVmg68QrxYcoqbaXKpAW1qn0Bffy7NTv6vlvfS3FQIZsGYxlIXyIhbyF8yCOsUYnwuXN6/BXoDGWPjim7mPWjpNo6bMiUxQfZBTpK2Gy/OmyjlXRb6MlkueBBIU6Y/SoTiga+xyWDeiE79ZeC+gujJm3B5Yt6QqrWj2CW3iNC5MaoJpUwoxA/PDg4CR07/Qzdt+xiqDGSI2STeoib5DIEfHKWBldamY31oRw4cVW9K/0Nbzz1ELVUnmRLXNmZEwdD89vnsa+lVMxbtYu3LDSFNGyd8XSVT1gFPsVIoCHi1qjWL8/AwSFVMJ0F744PbMnRp7OgPLlCiFr+rRI+34SeNz/F8e2LMbUCb9g/803Fwurlv74x0TUTSlhhXDlwVr0qNgNq418+VBXQqaGgzBuQG1kiuuHm1uHokO3WTgRMOoyDop88zvmtLGy10VBIr8AV7w4PgZNGo/BX9bVdTxjIIbnS7y0bgxHS4sm01fi+9JSyML9iACPaF5fno/21Qdih5W3NSRiVByJE1PrGGtCePDy0BBUbzQd/zriKvFMieo//4ZRNa0HNAnuRgR4BOF3A/OalcH3e6xjqXbwTIpS3y7ClOYZJZtTuPMaF+e3Rf0B2/HA6vHiESMRUib2w92bjwIVTIyZvQNmLekT5Qf6vxP38Ji5u2DEgEpIZX2V+QUR356JUKTHz+gj4luIovz3+DbuMDmrYCLUg2v3PlxxRHxHT4mSvSfiBxHfQlTl6SEcPBEo5YZtYqRG2T5TMFrEt5vwQtqmwzH608BZaP57+QA3gorvdDXw7TjJskXekft4NGRoPB5LZvZEtVzJAw3KVE8tJM5aAR0nLseMTnmCjMwVBEGISLyQunZvDOxUE/nej29DLHggevz3kKdaBwxdvBbTO+RDfOMVQYhy+H2AUk1qoFCa+DatC9Hip0bemt0wcvlqTP40PyTc5kY8k6NE3wVYMbk7quZO+dYAy2jx0+Kj5oMwb8nPqJ9RsmyRd8KCEpiXuP/vKZz59wYe+cVH8rSZkT1jMkhBP0EQzI6vz21cvXgJl6/ew+sE7yFNhnT4IHlcieIJQiD88OLBDVy9eg3Xr9+Bj0c8JE6RBlmyp0FCuVhMgB98rp3G6QvXcefJf4iXTB2bDzMjmQixQLyDAlwQBEEQBEEQzItYCQVBEARBEATBjYgAFwRBEARBEAQ3IgJcEARBEARBENyICHBBEARBEARBcCMiwAVBEARBEATBjYgAFwRBEARBEAQ3IgJcEARBEARBENyICHBBEARBEARBcCMiwAVBEARBEATBjYgAFwRBEARBEAS3AfwfPd9y+pPyPY0AAAAASUVORK5CYII=;" parent="53" vertex="1">
                    <mxGeometry x="760" y="268.8" width="236" height="42.96" as="geometry"/>
                </mxCell>
                <mxCell id="1" value="main" style="" parent="0"/>
                <mxCell id="17" value="Legend" style="swimlane;fontStyle=0;childLayout=stackLayout;horizontal=1;startSize=26;horizontalStack=0;resizeParent=1;resizeParentMax=0;resizeLast=0;collapsible=1;marginBottom=0;" parent="1" vertex="1">
                    <mxGeometry x="690" y="18" width="140" height="104" as="geometry"/>
                </mxCell>
                <mxCell id="20" value="Circle - Start/Finish" style="text;strokeColor=none;fillColor=none;align=left;verticalAlign=top;spacingLeft=4;spacingRight=4;overflow=hidden;rotatable=0;points=[[0,0.5],[1,0.5]];portConstraint=eastwest;" parent="17" vertex="1">
                    <mxGeometry y="26" width="140" height="26" as="geometry"/>
                </mxCell>
                <mxCell id="19" value="Rectangle - an action" style="text;strokeColor=none;fillColor=none;align=left;verticalAlign=top;spacingLeft=4;spacingRight=4;overflow=hidden;rotatable=0;points=[[0,0.5],[1,0.5]];portConstraint=eastwest;" parent="17" vertex="1">
                    <mxGeometry y="52" width="140" height="26" as="geometry"/>
                </mxCell>
                <mxCell id="18" value="Diamond - a decision" style="text;strokeColor=none;fillColor=none;align=left;verticalAlign=top;spacingLeft=4;spacingRight=4;overflow=hidden;rotatable=0;points=[[0,0.5],[1,0.5]];portConstraint=eastwest;" parent="17" vertex="1">
                    <mxGeometry y="78" width="140" height="26" as="geometry"/>
                </mxCell>
                <mxCell id="22" value="" style="rounded=1;whiteSpace=wrap;html=1;movable=1;resizable=1;rotatable=1;deletable=1;editable=1;connectable=1;" parent="1" vertex="1">
                    <mxGeometry x="250" y="230" width="370" height="340" as="geometry"/>
                </mxCell>
                <UserObject label="&lt;span style=&quot;font-size: 12px&quot;&gt;Game set-up&lt;/span&gt;" id="4">
                    <mxCell style="rounded=0;whiteSpace=wrap;html=1;fillColor=#f8cecc;strokeColor=#b85450;" parent="1" vertex="1">
                        <mxGeometry x="325" y="150" width="120" height="60" as="geometry"/>
                    </mxCell>
                </UserObject>
                <mxCell id="5" value="&lt;span style=&quot;font-size: 12px&quot;&gt;Get user guess&lt;/span&gt;" style="rounded=0;whiteSpace=wrap;html=1;fillColor=#d5e8d4;strokeColor=#82b366;" parent="1" vertex="1">
                    <mxGeometry x="325" y="260" width="120" height="60" as="geometry"/>
                </mxCell>
                <mxCell id="14" style="edgeStyle=none;html=1;exitX=0.5;exitY=1;exitDx=0;exitDy=0;entryX=0.5;entryY=0;entryDx=0;entryDy=0;" parent="1" source="4" target="5" edge="1">
                    <mxGeometry relative="1" as="geometry"/>
                </mxCell>
                <mxCell id="6" value="Check &lt;br&gt;guess" style="rhombus;whiteSpace=wrap;html=1;fillColor=#e1d5e7;strokeColor=#9673a6;" parent="1" vertex="1">
                    <mxGeometry x="345" y="360" width="80" height="80" as="geometry"/>
                </mxCell>
                <mxCell id="10" style="edgeStyle=none;html=1;exitX=0.5;exitY=1;exitDx=0;exitDy=0;entryX=0.5;entryY=0;entryDx=0;entryDy=0;" parent="1" source="5" target="6" edge="1">
                    <mxGeometry relative="1" as="geometry"/>
                </mxCell>
                <mxCell id="11" value="miss" style="endArrow=classic;html=1;exitX=0;exitY=0.5;exitDx=0;exitDy=0;entryX=0;entryY=0.5;entryDx=0;entryDy=0;" parent="1" source="6" target="5" edge="1">
                    <mxGeometry width="50" height="50" relative="1" as="geometry">
                        <mxPoint x="440" y="470" as="sourcePoint"/>
                        <mxPoint x="490" y="420" as="targetPoint"/>
                        <Array as="points">
                            <mxPoint x="290" y="400"/>
                            <mxPoint x="290" y="290"/>
                        </Array>
                    </mxGeometry>
                </mxCell>
                <mxCell id="39" style="edgeStyle=none;html=1;exitX=0.5;exitY=0;exitDx=0;exitDy=0;entryX=1;entryY=0.5;entryDx=0;entryDy=0;" parent="1" source="12" target="5" edge="1">
                    <mxGeometry relative="1" as="geometry">
                        <Array as="points">
                            <mxPoint x="550" y="290"/>
                        </Array>
                    </mxGeometry>
                </mxCell>
                <mxCell id="-CvwGCBz1DSBVIMzxxdN-270" style="edgeStyle=orthogonalEdgeStyle;rounded=0;orthogonalLoop=1;jettySize=auto;html=1;exitX=0.5;exitY=1;exitDx=0;exitDy=0;entryX=1;entryY=0.5;entryDx=0;entryDy=0;" parent="1" source="12" target="15" edge="1">
                    <mxGeometry relative="1" as="geometry"/>
                </mxCell>
                <mxCell id="-CvwGCBz1DSBVIMzxxdN-271" value="sunk" style="edgeLabel;html=1;align=center;verticalAlign=middle;resizable=0;points=[];" parent="-CvwGCBz1DSBVIMzxxdN-270" vertex="1" connectable="0">
                    <mxGeometry x="-0.6001" y="-1" relative="1" as="geometry">
                        <mxPoint as="offset"/>
                    </mxGeometry>
                </mxCell>
                <mxCell id="12" value="Mark ship as hit" style="rounded=0;whiteSpace=wrap;html=1;fillColor=#ffe6cc;strokeColor=#d79b00;" parent="1" vertex="1">
                    <mxGeometry x="490" y="370" width="120" height="60" as="geometry"/>
                </mxCell>
                <mxCell id="13" value="hit" style="edgeStyle=none;html=1;exitX=1;exitY=0.5;exitDx=0;exitDy=0;entryX=0;entryY=0.5;entryDx=0;entryDy=0;" parent="1" source="6" target="12" edge="1">
                    <mxGeometry relative="1" as="geometry"/>
                </mxCell>
                <mxCell id="15" value="Mark ship as sunk" style="rounded=0;whiteSpace=wrap;html=1;fillColor=#dae8fc;strokeColor=#6c8ebf;" parent="1" vertex="1">
                    <mxGeometry x="325" y="490" width="120" height="60" as="geometry"/>
                </mxCell>
                <mxCell id="23" value="Display user score rating" style="rounded=0;whiteSpace=wrap;html=1;fillColor=#fff2cc;strokeColor=#d6b656;" parent="1" vertex="1">
                    <mxGeometry x="325" y="590" width="120" height="60" as="geometry"/>
                </mxCell>
                <mxCell id="24" style="edgeStyle=none;html=1;exitX=0.5;exitY=1;exitDx=0;exitDy=0;entryX=0.5;entryY=0;entryDx=0;entryDy=0;" parent="1" source="15" target="23" edge="1">
                    <mxGeometry relative="1" as="geometry"/>
                </mxCell>
                <mxCell id="25" value="Game &lt;br&gt;over" style="ellipse;whiteSpace=wrap;html=1;aspect=fixed;" parent="1" vertex="1">
                    <mxGeometry x="345" y="690" width="80" height="80" as="geometry"/>
                </mxCell>
                <mxCell id="27" style="edgeStyle=none;html=1;exitX=0.5;exitY=1;exitDx=0;exitDy=0;entryX=0.5;entryY=0;entryDx=0;entryDy=0;" parent="1" source="26" target="4" edge="1">
                    <mxGeometry relative="1" as="geometry"/>
                </mxCell>
                <mxCell id="26" value="Start" style="ellipse;whiteSpace=wrap;html=1;aspect=fixed;" parent="1" vertex="1">
                    <mxGeometry x="345" y="30" width="80" height="80" as="geometry"/>
                </mxCell>
                <mxCell id="32" value="1" style="ellipse;whiteSpace=wrap;html=1;aspect=fixed;strokeWidth=2;fontFamily=Tahoma;spacingBottom=4;spacingRight=2;strokeColor=#d3d3d3;" parent="1" vertex="1">
                    <mxGeometry x="290" y="170" width="20" height="20" as="geometry"/>
                </mxCell>
                <mxCell id="33" value="2" style="ellipse;whiteSpace=wrap;html=1;aspect=fixed;strokeWidth=2;fontFamily=Tahoma;spacingBottom=4;spacingRight=2;strokeColor=#d3d3d3;" parent="1" vertex="1">
                    <mxGeometry x="270" y="260" width="20" height="20" as="geometry"/>
                </mxCell>
                <mxCell id="34" value="3" style="ellipse;whiteSpace=wrap;html=1;aspect=fixed;strokeWidth=2;fontFamily=Tahoma;spacingBottom=4;spacingRight=2;strokeColor=#d3d3d3;" parent="1" vertex="1">
                    <mxGeometry x="280" y="610" width="20" height="20" as="geometry"/>
                </mxCell>
                <mxCell id="37" value="A" style="ellipse;whiteSpace=wrap;html=1;aspect=fixed;strokeWidth=2;fontFamily=Tahoma;spacingBottom=4;spacingRight=2;strokeColor=#d3d3d3;" parent="1" vertex="1">
                    <mxGeometry x="460" y="200" width="20" height="20" as="geometry"/>
                </mxCell>
                <mxCell id="38" value="B" style="ellipse;whiteSpace=wrap;html=1;aspect=fixed;strokeWidth=2;fontFamily=Tahoma;spacingBottom=4;spacingRight=2;strokeColor=#d3d3d3;" parent="1" vertex="1">
                    <mxGeometry x="430" y="410" width="20" height="20" as="geometry"/>
                </mxCell>
                <mxCell id="40" value="A" style="ellipse;whiteSpace=wrap;html=1;aspect=fixed;strokeWidth=2;fontFamily=Tahoma;spacingBottom=4;spacingRight=2;strokeColor=#d3d3d3;" parent="1" vertex="1">
                    <mxGeometry x="460" y="320" width="20" height="20" as="geometry"/>
                </mxCell>
                <mxCell id="28" style="edgeStyle=none;html=1;exitX=0.5;exitY=1;exitDx=0;exitDy=0;entryX=0.5;entryY=0;entryDx=0;entryDy=0;" parent="1" source="23" target="25" edge="1">
                    <mxGeometry relative="1" as="geometry"/>
                </mxCell>
                <mxCell id="-CvwGCBz1DSBVIMzxxdN-214" value="C" style="ellipse;whiteSpace=wrap;html=1;aspect=fixed;strokeWidth=2;fontFamily=Tahoma;spacingBottom=4;spacingRight=2;strokeColor=#d3d3d3;" parent="1" vertex="1">
                    <mxGeometry x="580" y="340" width="20" height="20" as="geometry"/>
                </mxCell>
                <mxCell id="-CvwGCBz1DSBVIMzxxdN-218" value="D" style="ellipse;whiteSpace=wrap;html=1;aspect=fixed;strokeWidth=2;fontFamily=Tahoma;spacingBottom=4;spacingRight=2;strokeColor=#d3d3d3;" parent="1" vertex="1">
                    <mxGeometry x="450" y="490" width="20" height="20" as="geometry"/>
                </mxCell>
                <mxCell id="9aeFHjFmoqaB0tIyLHOO-74" value="pseudocode" parent="0"/>
                <mxCell id="-CvwGCBz1DSBVIMzxxdN-151" value="while(shipisntsunk)" style="text;html=1;resizable=0;autosize=1;align=center;verticalAlign=middle;points=[];rounded=0;fillColor=#f5f5f5;fontColor=#333333;strokeColor=#666666;" parent="9aeFHjFmoqaB0tIyLHOO-74" vertex="1">
                    <mxGeometry x="650" y="270" width="120" height="20" as="geometry"/>
                </mxCell>
                <mxCell id="-CvwGCBz1DSBVIMzxxdN-152" value="getusersguess;" style="text;html=1;resizable=0;autosize=1;align=center;verticalAlign=middle;points=[];fillColor=#d5e8d4;strokeColor=#82b366;rounded=0;" parent="9aeFHjFmoqaB0tIyLHOO-74" vertex="1">
                    <mxGeometry x="670" y="290" width="100" height="20" as="geometry"/>
                </mxCell>
                <mxCell id="-CvwGCBz1DSBVIMzxxdN-153" value="checkguess;" style="text;html=1;resizable=0;autosize=1;align=center;verticalAlign=middle;points=[];fillColor=#e1d5e7;strokeColor=#9673a6;rounded=0;" parent="9aeFHjFmoqaB0tIyLHOO-74" vertex="1">
                    <mxGeometry x="670" y="310" width="80" height="20" as="geometry"/>
                </mxCell>
                <mxCell id="-CvwGCBz1DSBVIMzxxdN-173" value="if (invalid input)" style="text;html=1;resizable=0;autosize=1;align=center;verticalAlign=middle;points=[];fillColor=#e1d5e7;strokeColor=#9673a6;rounded=0;" parent="9aeFHjFmoqaB0tIyLHOO-74" vertex="1">
                    <mxGeometry x="680" y="330" width="100" height="20" as="geometry"/>
                </mxCell>
                <mxCell id="-CvwGCBz1DSBVIMzxxdN-174" value="2A" style="ellipse;whiteSpace=wrap;html=1;aspect=fixed;strokeWidth=2;fontFamily=Tahoma;spacingBottom=4;spacingRight=2;strokeColor=#d3d3d3;" parent="9aeFHjFmoqaB0tIyLHOO-74" vertex="1">
                    <mxGeometry x="650" y="290" width="20" height="20" as="geometry"/>
                </mxCell>
                <mxCell id="-CvwGCBz1DSBVIMzxxdN-176" value="&quot;Please enter a valid number&quot;;" style="text;html=1;resizable=0;autosize=1;align=center;verticalAlign=middle;points=[];fillColor=#e1d5e7;strokeColor=#9673a6;rounded=0;" parent="9aeFHjFmoqaB0tIyLHOO-74" vertex="1">
                    <mxGeometry x="690" y="350" width="180" height="20" as="geometry"/>
                </mxCell>
                <mxCell id="-CvwGCBz1DSBVIMzxxdN-202" value="2B" style="ellipse;whiteSpace=wrap;html=1;aspect=fixed;strokeWidth=2;fontFamily=Tahoma;spacingBottom=4;spacingRight=2;strokeColor=#d3d3d3;" parent="9aeFHjFmoqaB0tIyLHOO-74" vertex="1">
                    <mxGeometry x="650" y="310" width="20" height="20" as="geometry"/>
                </mxCell>
                <mxCell id="-CvwGCBz1DSBVIMzxxdN-203" value="else" style="text;html=1;resizable=0;autosize=1;align=center;verticalAlign=middle;points=[];fillColor=#e1d5e7;strokeColor=#9673a6;rounded=0;" parent="9aeFHjFmoqaB0tIyLHOO-74" vertex="1">
                    <mxGeometry x="680" y="370" width="40" height="20" as="geometry"/>
                </mxCell>
                <mxCell id="-CvwGCBz1DSBVIMzxxdN-204" value="ADD one to guesses" style="text;html=1;resizable=0;autosize=1;align=center;verticalAlign=middle;points=[];fillColor=#e1d5e7;strokeColor=#9673a6;rounded=0;" parent="9aeFHjFmoqaB0tIyLHOO-74" vertex="1">
                    <mxGeometry x="690" y="390" width="130" height="20" as="geometry"/>
                </mxCell>
                <mxCell id="-CvwGCBz1DSBVIMzxxdN-205" value="if (user’s guess matches a location)" style="text;html=1;resizable=0;autosize=1;align=center;verticalAlign=middle;points=[];fillColor=#ffe6cc;strokeColor=#d79b00;rounded=0;" parent="9aeFHjFmoqaB0tIyLHOO-74" vertex="1">
                    <mxGeometry x="690" y="410" width="200" height="20" as="geometry"/>
                </mxCell>
                <mxCell id="-CvwGCBz1DSBVIMzxxdN-207" value="ADD one to the number of hits" style="text;html=1;resizable=0;autosize=1;align=center;verticalAlign=middle;points=[];fillColor=#ffe6cc;strokeColor=#d79b00;rounded=0;" parent="9aeFHjFmoqaB0tIyLHOO-74" vertex="1">
                    <mxGeometry x="700" y="430" width="180" height="20" as="geometry"/>
                </mxCell>
                <mxCell id="-CvwGCBz1DSBVIMzxxdN-209" value="if (number of hits is 3)" style="text;html=1;resizable=0;autosize=1;align=center;verticalAlign=middle;points=[];fillColor=#dae8fc;strokeColor=#6c8ebf;rounded=0;" parent="9aeFHjFmoqaB0tIyLHOO-74" vertex="1">
                    <mxGeometry x="710" y="450" width="130" height="20" as="geometry"/>
                </mxCell>
                <mxCell id="-CvwGCBz1DSBVIMzxxdN-210" value="SET isSunk to true" style="text;html=1;resizable=0;autosize=1;align=center;verticalAlign=middle;points=[];fillColor=#dae8fc;strokeColor=#6c8ebf;rounded=0;" parent="9aeFHjFmoqaB0tIyLHOO-74" vertex="1">
                    <mxGeometry x="720" y="470" width="120" height="20" as="geometry"/>
                </mxCell>
                <mxCell id="-CvwGCBz1DSBVIMzxxdN-211" value="TELL user &quot;You sank my battleship!&quot;" style="text;html=1;resizable=0;autosize=1;align=center;verticalAlign=middle;points=[];fillColor=#dae8fc;strokeColor=#6c8ebf;rounded=0;" parent="9aeFHjFmoqaB0tIyLHOO-74" vertex="1">
                    <mxGeometry x="720" y="490" width="210" height="20" as="geometry"/>
                </mxCell>
                <mxCell id="-CvwGCBz1DSBVIMzxxdN-212" value="2C" style="ellipse;whiteSpace=wrap;html=1;aspect=fixed;strokeWidth=2;fontFamily=Tahoma;spacingBottom=4;spacingRight=2;strokeColor=#d3d3d3;" parent="9aeFHjFmoqaB0tIyLHOO-74" vertex="1">
                    <mxGeometry x="650" y="410" width="20" height="20" as="geometry"/>
                </mxCell>
                <mxCell id="-CvwGCBz1DSBVIMzxxdN-220" value="2D" style="ellipse;whiteSpace=wrap;html=1;aspect=fixed;strokeWidth=2;fontFamily=Tahoma;spacingBottom=4;spacingRight=2;strokeColor=#d3d3d3;" parent="9aeFHjFmoqaB0tIyLHOO-74" vertex="1">
                    <mxGeometry x="650" y="450" width="20" height="20" as="geometry"/>
                </mxCell>
                <mxCell id="-CvwGCBz1DSBVIMzxxdN-256" value="End loop" style="text;html=1;resizable=0;autosize=1;align=center;verticalAlign=middle;points=[];fillColor=#f5f5f5;strokeColor=#666666;rounded=0;fontColor=#333333;" parent="9aeFHjFmoqaB0tIyLHOO-74" vertex="1">
                    <mxGeometry x="650" y="510" width="60" height="20" as="geometry"/>
                </mxCell>
                <mxCell id="-CvwGCBz1DSBVIMzxxdN-257" value="TELL user stats" style="text;html=1;resizable=0;autosize=1;align=center;verticalAlign=middle;points=[];fillColor=#fff2cc;strokeColor=#d6b656;rounded=0;" parent="9aeFHjFmoqaB0tIyLHOO-74" vertex="1">
                    <mxGeometry x="650" y="530" width="100" height="20" as="geometry"/>
                </mxCell>
                <mxCell id="-CvwGCBz1DSBVIMzxxdN-262" value="Variables" style="text;html=1;resizable=0;autosize=1;align=center;verticalAlign=middle;points=[];fillColor=#f8cecc;strokeColor=#b85450;rounded=0;" parent="9aeFHjFmoqaB0tIyLHOO-74" vertex="1">
                    <mxGeometry x="650" y="250" width="60" height="20" as="geometry"/>
                </mxCell>
                <mxCell id="-CvwGCBz1DSBVIMzxxdN-263" value="1A" style="ellipse;whiteSpace=wrap;html=1;aspect=fixed;strokeWidth=2;fontFamily=Tahoma;spacingBottom=4;spacingRight=2;strokeColor=#d3d3d3;" parent="9aeFHjFmoqaB0tIyLHOO-74" vertex="1">
                    <mxGeometry x="630" y="250" width="20" height="20" as="geometry"/>
                </mxCell>
            </root>
        </mxGraphModel>
    </diagram>
</mxfile>